<?xml version='1.0' encoding='utf-8'?>
<svg xmlns="http://www.w3.org/2000/svg" version="1.1" id="angler" x="0px" y="0px" viewBox="0 0 900 900" style="enable-background:new 0 0 900 900;"> <style type="text/css"> .st0{fill:#FFFFFF;} .st1{fill:#FBD31E;} .st2{fill:#445976;} .st3{fill:#2E8FB7;} .st4{fill:#E69030;} .st5{fill:#FFFDEF;} .st6{fill:#C6E3EE;} .st7{fill:#96ADC1;} .st8{fill:#DAD6B1;} .st9{fill:#D1E4ED;} .st10{fill:#124B7A;} .st11{fill:#995911;} .st12{fill:#283C69;} .st13{fill:#0C314F;} .st14{fill:#061826;} .st15{fill:#768CA1;} .st16{fill:#D8ECF5;} </style> <g id="fcolor"> <g> <path d="M810.6,512.5c-0.2-2.7-0.9-5.4-1.5-8.2c-0.8-3.6-1.9-7.1-3.1-10.6c-1.9-8.6-4.2-17.1-6.2-25.6 c-3.9-16.9-7.8-33.8-11.6-50.7c-3.7-16.2-7.4-32.4-11.1-48.7c-2-8.6-4.4-17.5-6.5-26.3c-1.3-5.3-2.4-10.7-3.2-16 c1.3-1.8,2-3.6,0.4-3.1c-0.3,0.1-0.6,0.2-0.9,0.3c-0.3-2-0.5-4.1-0.7-6.2c-0.1-0.3-0.3-0.5-0.6-0.6c-12.2,0.2-24.4,4-36.1,7.1 c-10.8,2.8-22,5.4-32.3,9.8c-0.5-0.1-1.4,0.3-2.2,1c-0.4,0.2-0.8,0.4-1.2,0.5c-4.4-13.3-8.8-26.6-13.4-39.8 c-4.7-13.5-8.9-27.9-16.3-40.3c-12.2-20.6-38-28.9-62.1-29.8c-3-0.9-6.6-1.1-9.1-1.5c-4.4-0.7-8.6-1.5-12.9-1.3 c18.4-25.3,52.4-35.8,79.9-48.6c0.9-0.4,6.8-5.5,4.8-6.5c-18.6-9.5-39.3-9.9-59.3-4.9c-5.9,1.5-17.6,3.7-25.8,8.2 c4.6-6.5,9.7-12.7,15.5-18.5c8-8,15.8-15.5,20.4-26c0.5-1,0.5-1.9-0.8-1.8c-27.2,2.4-50.1,15.4-67.5,34.5 c-1.2,1.3-2.3,2.6-3.4,3.9c12-25,27.4-47.3,48.2-66.5c0.2-0.2,4.6-5.7,2-5.6c-34.5,0.3-64.9,22.2-87.4,47.2 c0.6-4.2,1.3-8.4,2.5-12.5c2.3-8.2,5.4-16.2,9.1-23.9c2.7-5.5,6.6-10.2,5.3-16.5c-0.3-1.2-1.7-0.7-2.4-0.3 c-25.3,13.5-52.8,39-60.3,68.4c-5.5-12.2-14.2-23.6-22.8-32.4c-12.3-12.6-27.3-20.5-44.1-25.3c-0.4-0.1-0.9,0.4-1.1,0.9 c-0.1,0-0.1,0-0.2,0c-0.9-0.1-3.4,2-2.9,2.9c3.1,6.8,9.9,11,14.2,17.1c4.9,7,7.8,14.9,9.4,23.3c1.6,8.1,2.3,16.5,2.7,24.8 c0.3,7-0.6,14-0.9,20.9c0,0.6,0,1.1-0.1,1.7c-0.1,0.3-0.1,0.5-0.1,0.7c-1.2,0.1-2.4,0.3-3.6,0.5c-4.2,0.5-7.1,1.6-11.1,3 c-0.3,0.1-1,0.6-1.7,1.3c-0.3-0.2-0.5-0.4-0.7-0.5c-0.1-0.3-0.2-0.6-0.3-1c0,0-0.1,0-0.1,0.1c-4.2-3.9-12.4-3.7-19.9-2 c-2.4-30.3-16.8-59.5-32.9-84.8c-15.6-24.8-45.1-39.7-72-49.2C233,41,183.8,45.5,155.3,76.7c-5.2,5.7-9.7,12.2-13.3,19.7 c-13,26.9-10.1,62.9-2,91.8c0.6,6.4,1.4,13.2,3.3,19.2c-0.8,0.5-1.5,1-2.3,1.6c-1.5-1.4-4.5-1.3-6.4-1.5c-2.8-0.3-5.7-0.2-8.5,0 c-1.6,0.1-5.4,2.9-4.8,4.8c1,3.5,2.2,6.7,4.1,9.6c-7.4-0.2-15.8,1.3-19.6,6.9c-1.2,1.8-2.5,3.1-1.3,5.2c1.1,1.8,7.9,2,9.7,2.3 c3.4,0.6,6.9,1.3,10.3,1.9c-3.3,2.2-6.2,4.9-8.7,8.2c-2.9,4-8.1,12.2-3.2,16.3c1.1,1,3.6-1.8,4.2-2.4c1.8-2.2,14.3-14,17.6-7.8 c0.8,1.4-1.9,9-2,10.6c-0.8,7.4-0.4,14.7,0.9,22c0.3,1.9,5.2-2.8,5.3-4.4c0.6-10.1,2.8-20.6,11.4-26.9c0.9,0,1.8-0.1,2.7-0.2 c1.4,7.5,3.5,14.6,4.2,22.5c0.6,7.3,1.6,14.1,4.9,20.7c0.7,1.5,4.9-3.2,5-4.1c1.4-13.8,1.2-27.3-0.2-41c6.4,4,11.9,9,16.7,15 c1.3,1.7,5.4-3.7,5.4-4.9c0.1-10.6-6.5-18.6-15.7-22.9c0.9-1.6,1.7-3.2,2.3-4.8c5.7,1.8,11.6,2.8,17.7,3.3c2,0.2,6.6-4,5.6-6.1 c-3.8-7.8-10.9-11.5-18.5-14.5c5.1-2.3,10.3-4.1,16-5.1c1.4-0.3,7.9-5.5,5.8-7c-10.4-8-22.2-3.1-32.4,2.7c0.7-6.4,2.9-12.2,8-16.7 c0.7-0.6,5.4-6.1,2-5.5c-8.7,1.5-21.9,9.3-24.7,19.1c-1.9,0-3.9,0.3-5.8,0.8c-0.7-9.4-3.6-18.9-5.4-28c0-0.2-0.1-0.5-0.1-0.7 c-4.6-30-7.4-65.1,8.8-89.7c1.9-2.9,4-5.5,6.3-8C179,56.5,213.1,51,241.8,55.9c17.3,3,33.9,9.3,49.4,17.4 c14,7.3,28.5,15.7,38.8,27.9c11.2,13.3,18.8,30.5,25.5,46.5c1.3,8.1,3.2,16.1,4.6,24.2c1.3,7.1,2,14.3,2.9,21.4 c-10,3.4-21.3,11-24.5,18.2c-1.3,2.9-1.5,5.2-1.1,7.1c-1,6.1,1,12.3,6.2,16.5c-1.7,6.8-4.2,12.6-7.3,18.4c-1.8,3.4-3.9,6.9-6,10.6 c-2.6,4.5-6.3,10.7-6.5,16.3c-14.3-10.9-37.7-6.8-52.2,1.4c-6.9,3.9-12.9,9-17.9,14.9c-6.5,7.6-11.4,16.7-14.6,26.2 c-6.1,18.1-7.8,41.8,5.3,57.4c5.6,6.7,14,11.2,22.5,12.2c-2.2,1.8-4.3,4.1-5.8,5.5c-1.4,1.3-2.9,2.6-4.3,4 c-4.2,4-8.2,8.3-11.7,12.9c-8.8,11.7-13.8,25.7-16,40.1c-3.1,20.1-1.9,40.2-2.1,60.2c-0.8,4.9-1.5,9.9-2.3,14.8 c-0.3-0.5-2.1,1.4-2.2,1.6c-0.1,0.3-0.3,0.6-0.4,0.9c-1.6,0.4-3.2,1-4.8,1.8c-2.7,1.3-5.2,2.9-7.7,4.9c-1.4-7.8-2.8-15.2-1.9-23.1 c1.1-10.2,5.2-19.5,9.3-28.7c0.5-1.2,0.6-2.4-1-2.2c-12.8,1.9-23.9,12.5-32.2,23.4c-2.8,3.6-5.2,7.3-7.4,10.7 c-7.6,12.3-16.7,32-15.6,48.1c-1-0.4-2.2-0.6-3.6-0.5c-10.7,0.1-17.8,6.9-21.8,15.9c-4.6,10.3-5.2,23.4-2.3,32.4 c6.3,20.2,20.8,32,37.8,40.9c-0.1,0.7-0.1,1.4-0.2,2c-2.4,28.9-3.1,59.9,13.7,84.9c17.6,26.2,53.8,31.6,82.8,33.3 c40.2,2.4,81,2.3,121.2-1.1c26.6-2.2,53.1-8,74.9-23.2c4-2.8,7.9-6,11.5-9.5c2.4-2.3,4.7-4.8,6.9-7.4c2.6,1.2,5.3,2.2,8.2,3 c0.2,0.4,0.3,0.8,0.5,1.1c0.3,0.6,1.1,0.3,2-0.4c11.4,3,24.4,4,34.7,4.7c11.2,0.7,23.9,0.5,34.9-3.3c-1.4,2.7-2.4,5.5-2.3,8.4 c0.2,11.1,13.9,11.4,26,9c3.1,15.7,24.6,24.6,38.2,28.5c9.5,2.7,19.4,4.2,29.1,5.7c10.3,1.5,21.2,3.6,31.7,2.9 c5.5,0.7,11.4,0,15.7-2.6c0.4-0.2,1.5-1.2,1.9-2c1.5-1.4,2.8-3.1,1.9-3.8c-11.4-8.5-22.7-14-31.6-25.6 c-7.9-10.3-11.5-21.4-14.8-33.3c5.6-1,11.3-2.7,15.7-4c10.3-3.1,20.3-7.4,29.6-12.7c19.1-10.8,36.7-25.5,49.3-43.6 c0.8-1.1,1.5-2.2,2.2-3.3c12.5-19.6,15.2-40.6,11.6-63.7c-2-13-4.6-26.1-7.5-39c-1.7-7.4-3.2-18.6-6.8-27.3 c4.4-0.2,8.9-1.3,13.2-2.1c10.8-1.9,22-2.7,32.7-4.8c4.3-0.9,10.9-3.8,12.8-8.2C811.6,516.7,811.6,514.7,810.6,512.5z M263.6,309.2c0.2-0.7,0.8-1.3,1.4-1.7c0.2-0.2,1.1-0.8,1.2-0.2c0,0.1,0.1,0.2,0.2,0.3c0.2,0,0.3,0,0.4,0.1c0.5,0.6,1.2,1.3,2,1.4 c0.2,0,0.3,0.1,0.3,0.3c0.2,1-0.8,2-1.5,2.6c-0.7,0.6-1.6,1.1-2.6,0.9c-0.7-0.1-1.3-0.5-1.6-1.1 C263,310.9,263.3,310.1,263.6,309.2z M321.4,321.1c1.1,0.3,2,0.6,3,1.1c0.2,0.1,0.4,0.2,0.6,0.3c0.2,0.6,0.2,1.2-0.1,1.8 c-0.3,0.6-0.8,1.1-1.3,1.5c-1.2,1-2.1,1.4-3.6,0.9c-1-0.3-2-0.6-2.9-1.1C316.1,325.1,320,320.8,321.4,321.1z"/> <path class="st0" d="M323.7,325.8c0.5-0.4,1-0.9,1.3-1.5c0.3-0.6,0.3-1.1,0.1-1.8c-0.2-0.1-0.4-0.2-0.6-0.3c-1-0.4-1.9-0.8-3-1.1 c-1.4-0.3-5.2,4-4.1,4.6c1,0.5,1.9,0.8,2.9,1.1C321.6,327.2,322.5,326.8,323.7,325.8z"/> <path class="st0" d="M265,312.9c1,0.2,1.8-0.3,2.6-0.9c0.7-0.6,1.7-1.5,1.5-2.6c0-0.2-0.1-0.3-0.3-0.3c-0.8-0.1-1.5-0.8-2-1.4 c-0.1-0.1-0.3-0.1-0.4-0.1c-0.1-0.1-0.1-0.2-0.2-0.3c-0.1-0.6-1,0-1.2,0.2c-0.6,0.4-1.1,1-1.4,1.7c-0.3,0.9-0.6,1.7-0.2,2.6 C263.8,312.4,264.3,312.8,265,312.9z"/> </g> <path class="st1" d="M161.2,250.8c1.3,9.2,1.8,18.4,1.6,27.6c-0.5-3.6-0.8-7.2-1.1-11c-0.5-4.9-0.8-10.9-3.6-15.2 c0.2-0.1,0.3-0.1,0.5-0.2C159.5,251.7,160.3,251.3,161.2,250.8z"/> <path class="st1" d="M170.9,242.3c2.6,2.9,5.1,5.7,7.2,8.7c-3-2.2-6.2-4.2-9.7-5.9C169.3,244.2,170.1,243.3,170.9,242.3z"/> <path class="st1" d="M186.2,229.3c-3.1-0.6-6.1-1.4-9.3-2.2c0.1-1,0.1-2,0-3C180.3,225.4,183.4,227.1,186.2,229.3z"/> <path class="st1" d="M171.6,211.1c5.4-2.6,11-4.2,16.4-3c-4.7,1.9-9.2,4.2-13.5,7.1C173.7,213.7,172.7,212.3,171.6,211.1z"/> <path class="st1" d="M159.4,204.5c2.7-4.8,6.2-8.9,11.1-11.1c-2.9,3.7-5.2,7.9-6.6,12.4C162.4,205.2,160.9,204.8,159.4,204.5z"/> <path class="st1" d="M805,518.4c0.3,0.7-0.3,0.1-2.2,0.9c-5,2.1-13.1,1.7-18.4,2.5c-11,1.7-21.6,3.8-32.7,4.5 c-1.6-12.6-6-25.4-9.7-37.7c7.2-0.7,14.7-2.4,20.8-5.5c0.6-0.3,4.2-3.4,2.6-4c-4.2-1.5-9.9,0.9-14.1,1.8c-3.6,0.8-7.1,1.8-10.6,3 c-0.2-0.9-0.5-1.7-0.7-2.6c-2.4-8.6-4.7-17.2-7.1-25.8c8-0.2,16.8-2.4,22.7-5.5c0.5-0.3,3.5-2.8,2.2-3.3c-4.2-1.6-9.8,0.5-14.1,1.2 c-4.1,0.6-8.3,1.1-12.4,1.8c-1.7-6.2-3.4-12.3-5.2-18.5c-1.6-5.6-3.1-11.2-4.7-16.9c1.4-0.4,2.7-0.8,3.6-0.9 c7.7-1.5,15.9-2.6,22.8-6.5c0.6-0.3,4.7-3.7,3.4-4.5c-4.1-2.4-10.9,0.5-15.3,1.5c-4.6,1-10.8,3.6-16.1,4.2 c-3.1-11.5-6.1-23.1-9.3-34.5c7.1-0.7,14.4-2.8,20.1-5.9c0.4-0.2,3.6-3,2.2-3.3c-4.1-0.9-8.8,0.9-12.9,1.7c-3.7,0.7-7.3,1.4-11,2.3 c-1.8-6.3-3.8-12.6-5.9-18.8c8.4-1.6,17.7-5.5,24.3-7.5c11.7-3.4,23.4-6.9,34.7-11.3c0.1,0.6,0.2,1.2,0.4,1.9 c0.9,3.7,1.8,7.4,2.6,11.1c0.4,1.7,0.8,3.4,1.2,5.1c2.8,12.2,5.5,24.4,8.3,36.5c5.2,23,10.5,46,15.7,69 c4.4,19.3,6.7,41.2,14.1,59.9c0,0.1,0.1,0.3,0.1,0.4c-0.4,0.5-0.6,1-0.4,1.5C804.5,517.4,804.9,518.1,805,518.4z"/> <path class="st2" d="M758.6,325.8c0.3,0.1,0.4,0.2,0.6,0.3c-9.8,3.3-19.6,6.8-29.6,9.8c-9.3,2.8-19.3,4.7-28.5,8.1 c-0.5-1.4-1-2.9-1.6-4.3c5.5-1.4,10.9-3.3,16.2-4.7c10.7-2.8,21.6-5.1,32.4-7.7C751.6,326.5,755.3,324.2,758.6,325.8z"/> <path class="st3" d="M756.6,590.7c4.4,22.5,7.8,45.8-3.5,66.9c-0.6,1.2-1.3,2.4-2,3.6c-10.7,17.8-28,32.1-46.2,41.7 c-9,4.8-18.4,8.5-28.1,11.5c-9.2,2.8-18.9,3.9-28.1,6.6c-2.8,0.2-5.6,0.4-8.4,0.5c-11.3,0.4-22.4-0.9-33.6-1 c-6.7-0.1-13.3,0.7-19.4,2.5c-2.5-3.3-16.2,6.1-17.6,7.4c-0.9,0.8-1.8,1.8-2.7,2.8c-3.7,0.6-7.5,2-11.1,2.5c-9,1.3-18.1,1.4-27.2,1 c-10.9-0.5-21.9-3-32.8-4.5c-0.1-5.4-0.9-10.6-0.2-16.1c1.2-4,2.3-8,3.2-12.2c18.6,10.6,44,16.2,64.3,10.7c0.4-0.1,2.2-1.8,1.4-1.9 c-10.7-1.9-21.6-0.9-32.4-3.1c-11-2.2-21.1-6.2-31.2-10.8c0-0.3-0.2-0.3-0.5-0.2c-0.7-0.3-1.4-0.6-2.1-1c0.6-6.9-0.4-13-1.1-20.3 c-1-10.6-2.3-21.2-3.8-31.8c-0.1-0.6-2,0.9-2,1.6c4.4,32.5,4.7,72.3-23,95.2c-2.5,2-5,3.9-7.7,5.6c-25.7,16.6-59,18.4-88.7,19.8 c-34.1,1.6-68.5,1.7-102.6-0.5c-27.2-1.7-56.2-6.4-75.6-27.4c-20-21.8-19.8-53.2-18.1-81.5c11,5.2,22.7,9.4,33.6,13.9 c0.8,0.3,2.9-2.2,2.1-2.5c-14.5-6.1-26.2-13.7-38.9-22.7c-10.7-7.6-21.1-16.4-27.6-28c-3.4-6.2-5.8-13.1-6.5-20.2 c-0.3-3.4-0.3-7.1,0.4-10.5c0.3-1.5,0.8-3.1,1.5-4.7c2.1-4.7,5.9-9.2,10.9-9.3c7.7-0.3,10.2,8.3,14,13.5 c4.1,5.6,8.9,10.5,14.3,14.7c20.2,16,46.3,22.6,71,27.9c33,6.9,67,11.8,100.7,13.3c13.2,0.6,29.7,2.9,42.2-2.8 c3.7-1.7,7-4.1,9.7-7.1c0.8-0.8,1.4-1.5,1.5-1.7c0,0,0,0,0,0c2.8-3.6,3.3-8.6,5.2-12.4c4.5-4,9.8-1.9,13.9,1.7 c9.5,8.3,5.6,22.6-1.3,31.1c-13.3,16.3-33.8,15.7-50.6,25.2c-0.4,0.2-3.4,2.6-2.4,3.2c4.9,2.9,13.5-1.3,18.6-3 c7.4-2.5,14.6-5.6,21.2-9.7c11.7-7.2,23.1-18.4,27.4-31.7c4-12.4-2.1-31.1-18.4-27.7c-5.6,1.1-10.2,4.9-13.5,9.7 c-1.4-7.8-4.2-16.3-8-23.9c-4.9-11.4-15.3-22.8-25.8-29.5c-0.2-0.3-0.5-0.6-0.7-0.9c-4-2.5-8.1-4.7-12.5-6.5c0,0,0,0,0,0 c-0.1,0-0.2-0.1-0.3-0.1c-0.7-0.3-2.4,1.1-3.3,2.3c-0.1-0.1-0.2-0.1-0.3-0.2c0,0.1,0.1,0.3,0.1,0.4c-0.4,0.6-0.6,1.3-0.3,1.5 c0.4,0.3,0.8,0.7,1.1,1c3.6,11.5,5.1,23.6,5,35.6c0,5.3-0.5,10.6-1,15.9c-1-0.1-2-0.2-3-0.5c-0.7-0.2-1.3-0.6-2-0.8 c-0.5-0.1-0.9-0.1-1.4-0.1c-1.5-1.6-3.1-3.2-4.5-4.5c-4.1-4-8.3-8-11.7-12.7c-3.1-4.3-4.2-9.4-7.2-13.7c-0.1-0.2-0.4-0.1-0.7,0.1 c-0.3-0.5-0.6-1-1-1.4c-0.5-0.6-2.1,1.4-2.2,1.8c-2,9.8-2.6,19.8-4.5,29.6c-0.2,1-0.4,1.9-0.5,2.9c-1.2-0.3-2.4-0.6-3.6-1.1 c-0.8-0.4-1.7-0.7-2.6-1.1c-1-1.1-2.1-2.1-3.2-3.1c-9.8-9-19.6-15.2-21.3-29.5c-0.1-0.5-0.7-0.3-1.4,0.2c-0.3-0.7-2.8,1.8-3,2.2 c-1.1,2.4-1.8,4.9-2.5,7.5c-0.2,0.8-0.6,1.8-0.9,2.8c-1.9,3.1-3.6,6.4-4.9,9.9c-0.8-0.2-1.7-0.4-2.4-0.7c-1.7-0.7-3.3-1.6-4.8-2.7 c-1.2-1.8-2.4-3.6-3.3-5.4c-8.1-15.3-2.5-32.3-3.1-48.5c0.2-0.6,0.5-1.2,0.7-1.9c0.7-1.9-3.1,0.9-3.3,1.2 c-9.7,11.3-16.9,26.4-22.3,40.3c-2.3-0.1-4.4-0.6-6.6-1.9c-0.1-0.1-0.3-0.2-0.4-0.2c-3.1-4-6.5-8-8-12.7c0-0.1-0.1-0.3-0.1-0.4 c0.9-2.3,1.3-4.9,1.4-7.6c0.2-0.2,0.4-0.4,0.4-0.5c14.5-28.3,9.3-60.4,9.9-91c0.3-16.2,2.1-33.1,9.5-47.7 c3.8-7.6,9.2-13.9,15.2-19.8c0.8-0.8,1.7-1.7,2.6-2.5c2.9-2.7,6.5-5.2,8.8-8.5c3.3-0.1,6.5-0.8,9.6-2.1c1-0.4,2-0.9,3-1.5 c5.1,7.3,13.1,13,24.4,16.3c21.9,6.4,42.8-4.4,56-21.4c2-2.5,3.8-5.2,5.4-7.9c7.2-12.4,10.4-26.3,11.6-40.4 c1.2-14.6,3.1-32.5-4.6-45.7c-9.7-16.5-29.4-20.3-45.2-13.6c2.5-7.4,5.5-13.8,9.1-20.5c1.1-2,2.2-4,3.4-6.1 c1.5-2.6,3.5-5.9,4.7-9.4c13.1,10.4,37.7,4,48.7-5.8c0.2-0.2,1.2-1.6,0.3-1.1c-8.2,4.7-17.4,7.5-26.9,7c-3.1-0.2-5.9-0.8-8.6-1.7 c7.9-1.2,16-4.6,21.9-7.6c3.8-1.8,7.5-3.9,11-6.3c1.3-0.7,2.9-2,3.6-2.7c1.8-1.7,3.3-3.9,4.5-6.2c0.3-0.3,0.6-0.7,0.7-0.8 c2.2-3.1,2.7-6.5,2.2-10.2c0-0.1,0-0.2-0.1-0.3c0.1-0.1,0.1-0.3,0.2-0.4c-0.2-0.5-0.4-1-0.6-1.5c-0.4-1.4-1-2.8-1.8-3.9 c-0.7-1.1-1.4-2.1-2.3-3c0.1,0,0.1,0,0.2,0c0.3,0,0.5,0,0.8-0.1c0,0,0,0,0,0c3.8,2.3,7.8,4.7,9.8,8.8c2.7,5.6,0,10.6-2.4,15.8 c-0.4,0.9,0.9-0.1,1.1-0.3c4.1-5.1,9-12.7,6.8-19.3c2.4,0.9,4.9,1.4,7.3,1.7c1.6,0.7,3.2,1.3,4.7,2c7.1,3.3,14.5,5.8,21.7,8.9 c15.8,6.7,27.8,15.8,37.4,30c0.3,0.5,1.6-1,1.5-1.4c0-0.7-0.1-1.4-0.1-2c0.5-0.5,0.9-1,0.9-1.2c0.7-3.3,0.8-7,0.3-10.9 c-0.8-7.1-3.4-14.7-7.1-21.2c6.5,4.8,12,10.6,17.2,16.7c11.4,13.5,21.4,28.2,31.2,42.9c0.7,1,5-2.6,4.4-4.2 c0.2-0.2,0.4-0.4,0.4-0.5c2.7-6,4.2-13.7,4.5-21.8c4.5,5,9.3,9.6,12.9,15.4c4.3,7,6.3,15.8,10.6,22.6c0,0,0,0,0,0 c0,0.3,0.1,0.4,0.3,0.4c0.2,0.3,0.4,0.7,0.6,1c0.4,0.6,1.9-1.3,2-1.7c0.1-0.8,0.2-1.6,0.3-2.4c1.4-2.1,2.5-4.5,3.4-7 c0.5-1.5,1-3.1,1.4-4.6c0.5-0.5,0.9-1.1,0.9-1.3c2.7-7.8,3.6-16,2.6-23.9c4.6,0.9,10.6-0.9,15-1.4c10.2-1,20.4-1.2,30.6,0.5 c1.4,0.2,2.8,0.5,4.2,0.9c13.3,4.8,24.7,13,31.7,26.5c7.8,15.1,12.3,32.4,17.8,48.4c5.5,15.9,10.7,31.8,15.8,47.8 c10.2,31.9,19.7,64.1,28.5,96.5c4.2,15.4,8.2,30.7,12,46.2c3.8,8.7,6.6,18.1,9.1,27.2c-0.3,0.5-0.3,0.9,0.1,1.1 c0.1,0,0.1,0,0.2,0.1c0.5,2,1,3.9,1.6,5.9c1.6,6.1,3.2,12.6,4.5,19.2c0.3,1,0.6,1.9,0.9,2.9C752.2,570,754.6,580.3,756.6,590.7z M650.5,594.9c1.7,0.6,6-3.9,5-5.6c-2.6-4.8-5.5-9.6-8.6-14.1c0.4-0.5,0.8-1,0.7-1.3c-5.8-16.8-3.1-34.4-8.2-51.1 c-4.5-14.6-13.8-28.7-26.8-36.9c3.2-2.7,7.1-4.2,11.7-4c1.4,0.1,4.8-2.8,4.3-4.3c-2.8-9.7-12-19.9-22.5-21.1c1.6-0.8,3.2-1.5,5-2 c5.1-1.4,9.7-1.8,14.9-1.1c0.5,0.1,1.4-1.1,1.4-1.5c0.1,0.2,0.3,0.4,0.4,0.6c0.5,0.7,2.6-1.6,2.4-2.2c-3-15.1-17.1-26.9-31.5-31 c-3.1-0.9-19.6-0.9-20.3-2.2c-0.5-0.9,0.4-3.1,1.5-5.6c1.6-3.3,3.8-6.9,4.5-8.3c3.2-6.4,6.9-12.5,10.7-18.5 c0.4-0.7,1.7-2.9,0.2-3.2c-7.5-1.5-14.2,1.5-20.2,6.7c0,0,0,0,0,0c-13.8-42.8-47.4-86.4-89.6-103.8c-0.3-0.1-1.2,0.9-1,1.1 c18.4,13.5,36.7,26.7,51.6,44.2c15.7,18.4,26.8,39.1,35.2,61.6c0.1,0.2,0.2,0.3,0.3,0.3c-8.8,9.3-15.5,22.5-19.6,30.6 c-6.4,12.3-11.7,25.2-16.2,38.3c-2.5,7.2-6.9,16.6-9.2,25.5c-1.4-1.4-3.1-2.5-5.1-3.7c-0.3-0.2-0.8,0-1.3,0.4 c-2.1-2.2-4.8-3.5-8.2-3.2c-2.2,0.2-6.3,2.5-8.7,5.3c-1.3,1.6-2.1,3.3-1.6,4.9c-1.3,3.3-1.9,6.7-1.6,9.2 c1.2,9.4,5.7,19.3,10.2,27.6c3.1,5.8,6.5,11.3,8.8,17.5c0.4,1.1,0.7,2.2,1,3.3c0.7,5.9,1.5,11.7,2,17.6c0.5,6.2-1.3,14.8,0.8,21 c0.3,5.4,2.4,9.3,8.7,7.6c6.9-1.8,10.1-8.9,11.8-15.6c0.2-1,0.4-1.9,0.6-2.8c21.7,8.4,35.1,27.9,49.7,45.2 c6.5,7.7,14.9,18.6,24.7,22.3c4.3,1.6,9.4,1.2,14,1.8c6.3,0.9,12.3,2.7,18.2,5c1.5,0.6,4.1-2.9,4.1-4.1c-0.1-18-4.7-36.2-14.5-51.2 C643.7,593.8,646.8,593.6,650.5,594.9z M465.5,582.3c0.6,0.6,2.2-1.4,2.2-1.9c-0.4-9.1-3.7-25.1-12.9-29.3 c-11.2-5.1-26.7-1.3-37.5,2.9c-0.4,0.1-2.6,2.5-1.7,2.6c11,0.3,22.9-3.6,33.3,1.5C457.6,562.2,458.3,575.8,465.5,582.3z"/> <path class="st1" d="M686.1,786.7c-8.4-1.9-17.9-2-26.2-3.3c-8.6-1.3-17.2-2.7-25.6-4.8c-8.7-2.2-17.4-5.2-25-10.1 c-5.7-3.6-9.9-9.1-14.9-13.4c3.4-1.1,6.3-2.3,8-3.3c0.3-0.2,2.8-2.5,2-3c-4.8-2.6-13.3,0.4-18.6,0.4c-5,0-12.6,0.3-15.9-4.4 c-2.3-3.3-2-6-0.3-8.3c0.6-0.3,1.2-0.6,1.8-1c0.2-0.1,1.4-1.3,1.7-2c2.5-1.7,5.6-3,8.2-4.2c12.8-3.2,27.8,0.5,40.4,0.9 c9.6,0.3,19.1-0.4,28.3-2.4C650.2,749.5,665.9,775.5,686.1,786.7z M650.8,758.2c0.8-0.1,2.6-1.7,2.4-2.6c-0.6-2.4-3.3-3.3-5.5-4.2 c-2.5-1.1-5.2-1.9-7.9-2.6c-0.6-0.1-2.4,1.6-1.9,2.1C641.2,753.9,646,758.8,650.8,758.2z M647.9,772.5c0.4-0.1,2-1.3,1.5-1.9 c-1.9-2.2-6.3-2.7-9-3.6c-3.8-1.2-7.8-1.8-11.5-3.3c-0.1,0-0.5,0.4-0.4,0.5C634.2,768.1,640.5,773.7,647.9,772.5z"/> <path class="st1" d="M547,494.8c0.3-0.2,0.5-0.4,0.7-0.5c0,0,0,0,0.1,0l1.8-0.8c0.4-0.1,2-1.5,1.9-2.1c4.9-3.9,9.6-8.1,15-11.5 c2.9-1.8,15-6.8,14.1-11.5c-0.9-4.9-16.9,6.6-18.8,7.9c-6.2,4.6-12.8,9.9-16.8,16.6C543.4,495.6,545.2,495.9,547,494.8z M627.3,584.7c11.8,16.4,20.1,34,22.3,53.7c-21.8-8.2-37.5-26-52.7-43.1c-10.8-12.1-27.7-35-46.2-35.7c-1.1-19-5.4-38.8-13.8-56.1 c0.4-1.1,0.8-2.3,1.2-3.4c4.4-13,7.9-26.2,13.1-39c5.5-13.6,13.1-25,21.1-36.7c12.3-2.1,23.4,0.7,34.1,6.8 c9.4,5.3,14.7,12.6,20.9,20.9h0c-8.3-1.1-18-0.1-25.2,4.6c-0.9,0.1-1.8,0.3-2.7,0.5c-0.6,0.2-2.9,1.8-2.2,2.7 c0.2,0.2,0.4,0.4,0.6,0.6c-0.1,0.3-0.1,0.4,0.3,0.3c1.3,1.1,2.9,1.7,4.6,2.4c3.4,1.5,6.5,3.1,9.4,5.3c3.8,2.9,6.8,6.2,9.5,9.9 c-4.7,1.3-8.9,3.8-12.1,7.4c-1,1.2-2,2.6-2.7,4.1c-0.6,1.1,0.1,1,0.9,0.6c13.4,11.4,23.7,23.8,27.8,41.4 c2.5,10.7,0.9,23.7,4.5,34.4c-3.7-4.2-7.7-8.1-12.1-11.3c-0.9-0.7-3.8,2.2-3.2,3.2c7.2,10.1,14.9,19.6,21.5,30.1 c-2.7,0.4-5.2,1.4-7.7,3.2c0,0,0,0-0.1,0.1c-2.5-3.4-5.2-6.6-8.2-9.6C629.5,581.1,626.7,583.8,627.3,584.7z M606.5,565.8 c0.8,0,4.1-2.5,3.1-3.4c-9.3-9.2-29.2-6.5-40.7-4.2c-0.6,0.1-2.6,2.4-1.8,2.5c6.3,0.2,12.5,0.9,18.7,1.8 C592.8,563.5,599.5,565.9,606.5,565.8z M592.8,538.1c1.2-0.3,4.8-3.1,3.8-4.6c-2.9-4.4-11-3.9-15.7-3.6c-5.7,0.4-10.7,1.8-15.6,4.7 c-0.3,0.2-3.1,2.8-2.2,3.2c3.8,1.8,9,0.2,13.1,0.2C581.8,538.1,587.3,539.3,592.8,538.1z M593.1,501.5c1.1-7.3-5.1-5.7-10.1-3.6 c-8.9,3.7-19.2,7.7-26.5,14.2c-0.3,0.2-2.8,2.7-1.9,3.3c3.7,2.4,12.2-3.2,15.6-4.7c6.6-2.9,12.2-4.9,19.4-5.7 C590.9,504.8,592.9,502.8,593.1,501.5z"/> <path class="st1" d="M646.4,169.8c-3.5,1.5-6.9,3.5-9.5,4.7c-8.9,4.1-17.8,8.5-26.4,13.1c-13.2,7.1-26.5,14.4-34.7,27.4 c-0.6,0.9-0.9,1.6-1.1,2.2c-1.7-2.3-3.9-4.4-5.6-5.8c-3.6-3-7.3-5.2-11.5-6.1c-2.9-1.8-6.2-3.3-9.8-4.4c-0.9-0.3-3.8,2.5-3.1,3.4 c8.5,9.7,19.6,14.4,23.9,27.7c2.9,9.1,0.7,18.9,1.9,27.9c-0.2,1.6-0.5,3.2-0.8,4.8c-0.2,0.9-0.5,1.8-0.8,2.8 c-1.6-12.8-9.8-26.2-20.6-33c0.4-0.6,0.5-1.1,0.4-1.5c-5.3-13.3-9-33.3-25.4-35.9c-2.5-1.2-5.2-2.1-8.2-2.5 c-0.8-0.1-3.7,2.3-2.9,3.2c8.7,8.3,16.6,15.3,20.4,27.1c3.3,10.3,1.2,20,0.4,29.9c-14.1-24-31.7-58.4-60.4-62.6 c-1.7-1.5-3.7-2.5-5.9-2.2c-0.8,0.1-2.3,1.5-2.2,2.4c0.1,0.6,0.4,1.1,0.7,1.7c-0.1,0.3-0.1,0.5,0.1,0.7c0.4,0.3,0.8,0.5,1.1,0.8 c2,1.9,5,3.5,6.6,5.2c0.8,0.8,1.5,1.6,2.1,2.4c1.2,2.1,2.5,4.2,3.7,6.3c0.4,1,0.9,2,1.2,3.1c0.1,0.2,0.3,0.3,0.6,0.2 c0.9,1.8,1.8,3.6,2.5,5.4c1.2,3.2,1.9,6.6,2.6,10.1c-1-1.4-2-2.7-3-3.9c-5.9-6.8-13.9-11.4-21.9-15.1c-7.3-3.4-14.8-6.3-22.2-9.5 c-2.5-2.3-6-4.1-8.4-6c-1.1-0.9-2.1-1.8-3.2-2.8c2.7-0.6,5.4-1.1,7.7-2.5c0.2-0.1,0.5-0.3,0.8-0.6c6-1,11.9-1.8,17.8-3.1 c0.6-0.1,3.2-2.4,2.1-2.8c-9.9-3.2-24.7-1-35,4.1c-0.1,0-0.1-0.1-0.2-0.1c5.7-16.1,3.5-35.8,0.3-52.1c-1.3-6.8-4.3-15.3-8.8-22.5 c6.8,4.1,13.1,9.1,18.8,14.7c6.5,6.4,12.1,13.7,17,21.5c5.4,8.6,9.2,18.9,15.7,26.6c0.6,0.8,2.8-1.8,2.7-2.4 c-0.5-4.3-1.6-8.7-3.2-13c0.7-1.7,1.5-3.3,2.2-5c11.3-24.5,25.4-45.5,49.5-59.3c-6.9,10.1-10.8,22.6-13.9,34.3 c-2.5,9.4-6.9,25.3-5.6,36.9c0.1,4.7,0.8,9.1,2.6,12.8c0.7,1.5,4.9-3.3,5.1-4.2c2-10.1,2.2-20.3,3.3-30.5c0.7-0.6,1.4-1.3,2-1.9 c21.2-19.6,42.3-38.4,71.7-41.7c-11,9.2-19.8,22.6-27.8,33.9c-10.2,14.5-20.7,30.3-22.1,48.4c0,0.2,0.1,0.3,0.3,0.3 c-0.1,0.3-0.2,0.7-0.3,1c-0.9,2.9,5.8-2.3,6.4-3.7c3.1-7,7.5-13.5,12.7-19.2c5.2-5.7,11.2-10.8,17.6-14.9 c9.9-6.5,25.6-14.8,37.9-14.1c1.5,0.1,2.4,0.4,2.9,0.8c-9.5,9.8-18.2,20.3-27.2,30.6c-7.2,8.3-14.4,17.2-17.4,28 c-0.2,0.6-0.1,0.9,0.2,1.1c-0.2,0.5-0.5,1-0.7,1.6c-1.4,3.4,4.1-1,4.7-2.3c0.5-0.8,0.9-1.6,1.4-2.4c1.1-1,2-1.9,2.2-2.4 c0.9-2.3,2-4.5,3.2-6.7c0.4-0.6,0.8-1.3,1.1-1.9c4.3-3.6,14.9-5.4,19.1-6.7c6.3-1.9,12.8-3.4,19.4-4.2 C624.4,165.7,635.7,166.5,646.4,169.8z"/> <path class="st2" d="M637.7,639.9c-6.1-1-12.6-0.4-18.1-3.5c-10.2-5.9-18.4-17.3-25.6-26.3c-13.1-16.4-26.4-33.3-46.6-40.7 c1.3-0.9,2.6-2.1,3.1-3.3c8.4,3.7,15.6,7.9,23.1,14.7c8.8,8,16.5,17.1,24.4,26C609.7,619.9,622.1,632.3,637.7,639.9z"/> <path class="st2" d="M587.3,389.7c-3.7,6.8-7.2,13.6-10.5,20.5c-1.1,2.2-2.1,4.5-3.1,6.8c-11.6,10.8-19.5,26.2-25.6,40.5 c-5.5,13.1-10.6,27.1-13.7,41.3c-0.2-0.3-0.4-0.6-0.5-0.9c-0.5-1.9-1.5-3.6-2.6-5.5c7.7-15.9,11.5-34.1,18-50.4 C556.2,425.2,566.9,392.8,587.3,389.7z"/> <path class="st2" d="M537.6,542.9c2.2,11.3,2.6,23,0.8,34.4c0,0.2-0.1,0.4-0.1,0.7c-0.8,2.9-4.3,11.1-7.7,9 c-1.2-0.7-1.2-2.9-1.3-4.3c3.8-12.4,2.2-28.8-3.1-41.5c-1.1-5.1-3.7-9.9-6.3-14.8c-2.9-5.4-6-10.8-8.2-16.6 c-1.7-4.2-8.7-21-1.5-24.8c-0.6,0-1.3,0-1.9,0c-0.6,0-1.1,0-1.7,0c0.7-0.4,2.2-0.4,3-0.3c0.5,0.1,1,0.2,1.5,0.4 C521.4,503.9,533.3,520.9,537.6,542.9z"/> <path class="st4" d="M399.7,205.9c0.4,4,0.1,8-1.3,11.4c-0.1,0.4-0.4,0.8-0.6,1.1c-0.5,0.4-1,0.8-1.5,1.1 c-7.5,5-16.2,9.1-24.9,11.2c-11.2,2.7-19.4,0.8-24.2-5.2c8.2,1.7,19.3,0.2,24-1.6c8.8-3.4,23.9-9.9,27.9-20.2 C399.2,204.4,399.4,205.2,399.7,205.9z"/> <path class="st5" d="M382.4,586.3c10.7,12.1,12.1,27.8,18.3,41.9c-5.7,4.9-11,7.1-18.6,6.2c-3.7-0.4-7.2-1.8-10.7-2.8 c-0.9-1.4-2.5-2.5-3.6-3.6c-0.9-1-1.8-2-2.7-3c3.7-16.7,4.7-34.8,1.7-51.7C372.2,577.3,377.8,581.1,382.4,586.3z"/> <path class="st4" d="M389.1,198.7c9.9,8.9-10,16.9-16.9,19.1c-4.9,1.5-10.3,2.4-15.4,1.2c-3.7-0.8-11.7-3.6-11.4-8.4 c0.4-5.3,13.1-10.3,21.4-13.8c1.5-0.3,3.2-0.6,4.8-0.9c0.9,0,1.8-0.1,2.7-0.1c0.1-0.1,0.2-0.2,0.3-0.3 C379.9,194.8,385.1,195.1,389.1,198.7z"/> <path class="st0" d="M373.9,315.1c1.4,20.2,0,49-13,67.1c-4.8,6.7-11.2,11.9-19.6,14.7c-25.3,8.4-52.6-8.8-57-34.7 c-3.9-22.9,10-50.2,27.7-67.2c0.5-0.5,1-1,1.5-1.4c0.6,0.5,2.6-0.5,3.6-1.5C339.2,268.8,372,285.6,373.9,315.1z M330.5,329 c0.2-4.2-1.9-8.1-6.1-9.2c-5.1-1.3-10.1,2.4-13.1,6.1c-1.8,2.2-3.2,5.4-2.9,8.3c0,2.6,1,5,3.1,6.6 C319.1,346.8,330.1,336.9,330.5,329z"/> <path class="st5" d="M350.8,623.5c1.5,2.2,2.4,5.4,3.5,8.2c-4.6,0.8-8.8,1.3-13.7-0.1c-4.7-1.3-9-3.6-13.7-4.8 c-0.9-8.5,0.5-16.5,2-25.2c0.3-1.7,0.6-3.5,0.9-5.5c2.5,5.1,6.6,9.6,10.2,13.8C343.7,614.3,347.6,618.7,350.8,623.5z"/> <path class="st0" d="M318.4,285.9c-0.4,0.4-0.8,0.8-1.2,1.2c-2.8,1.8-5.5,4-8.1,6.3c-24.4,21.8-41.5,63.9-27.9,90.7 c-0.4,0.1-0.8,0.1-1.1,0.2c-3.3,0.6-6.5,0.8-10.4-0.2c-6-1.5-11.6-4.8-15.9-9.3c-11.1-11.5-12.8-29.3-10.1-44.3 c2-11.6,6.4-23.2,13.9-32.2c4.5-5.4,10-9.8,16.9-12.6C289.6,279.4,303.2,282.5,318.4,285.9z M271.5,321.1c3.1-3.3,4.3-7.4,2.4-11.6 c-1.5-3.3-5-6.4-8.9-5.5c-0.9,0.2-1.8,0.6-2.7,1.2c-0.4,0.1-1.3,0.7-1.4,0.8c-0.1,0.1-0.3,0.3-0.4,0.4c-2.8,2.3-4.9,5.9-5,9.1 c0,1,0.2,2,0.5,2.9c0.4,3,2.3,5.5,5.4,6.5C265.3,326.1,269,323.8,271.5,321.1z"/> <path class="st5" d="M314.3,628.2c-2.4,0-6.2,0.7-8,0.8c-8.7,0.4-15.7-3.7-23.7-5.9c-0.4-1.2-0.9-2.5-1.2-3.9 c-1-4.4-0.8-8.8,0.1-13.2c1-4.8,3.3-8.9,5.4-13.2c2,6.1,6.8,11.3,11.8,16c4,3.7,8.3,7.1,11.7,11.5 C312.3,622.7,313.3,625.5,314.3,628.2z"/> <path class="st5" d="M272,623c-1.6,0.5-3.1,1.1-4.6,1.8c-2.1-0.4-4.2-0.8-6.4-1.2c-0.7-0.3-1.4-0.6-2.1-0.9 c-2.9-1.2-5.5-2.7-7.9-4.7c-3.8-3.2-6-7.3-9-11c-0.2-1.7-0.3-3.4-0.3-5.1c0.2-8.5,2.9-16.6,6.1-24.4c3-7.1,7.1-13.8,10.7-20.7 c-3,12.4-3.6,26.5-0.4,37.9c1.7,5.8,4.9,11,7.9,16.1C268.4,614.8,270.9,618.6,272,623z"/> <path class="st5" d="M227.8,593.5c2,6.1,2.4,12.7,2.2,19.1c-2.2,0.3-4.5,0.8-6.7,1c-0.1,0-0.2-0.1-0.3-0.1 c-8.8-3-17.5-6.6-25.5-11.3c-3.4-5.2-5.5-11.4-10.3-15.8c-0.3-2.9-0.4-5.7,0.4-8.9c1.5-6.2,5-12.7,8.6-18c1.2-1.8,2.5-3.4,3.8-5 c5.8-6.7,12.8-11.7,19.8-17.2c0.1-0.1,0.1-0.1,0.2-0.2C212.1,557,214.8,577.4,227.8,593.5z"/> <path class="st5" d="M208.8,493.6c-5.6,14.6-13.9,35.7-3.1,48.9c-3.4,3.2-6.5,6.7-9.3,10.1c-1.7,2-3.2,4-4.5,5.9 c-2.9,4-9.4,13.9-12.3,23c-1.9-2.1-4.3-4-5.6-6.2c-0.6-1-1.2-2.1-1.8-3.3c0,0,0-0.1,0-0.1c0-3.9-1.3-7.8-1.8-11.6 c-0.2-1.5-0.3-3.1-0.4-4.7c1.4-8.6,2.9-17,6.5-25.5c2.8-6.5,6.4-13.1,10.8-19C193.1,503.5,200.1,497.1,208.8,493.6z"/> <path class="st1" d="M161.8,216.8c5.4,4.3,9.2,14.2,6.5,21.3c-0.4,1-0.9,1.9-1.5,2.8c-7.8,10.2-24,4.6-29.3-5 c-2.2-4-3.2-9.3-2.1-13.8c1.1-4.8,3.9-7.1,7.2-8.6c0.2-0.1,0.5-0.2,0.7-0.3c0.8-0.1,1.5-0.2,2.2-0.3c0,0,0,0,0,0 c0.2,0.4,0.7,0.2,1.2-0.2C152,212.3,156.8,212.7,161.8,216.8z"/> <path class="st1" d="M139.4,251.6c2.1,1,4.3,1.7,6.6,2.1c-3.8,3-6.5,7-8.4,11.5C137.8,260.6,138.4,256.1,139.4,251.6z"/> <path class="st1" d="M135.6,213.8c-2,2-3.8,4.3-5.2,6.8c-0.8-2.5-1.7-5.1-2.4-7.6c0.7,0,1.4,0,2.1,0.1 C131.9,213.3,133.7,213.7,135.6,213.8z"/> <path class="st1" d="M128.6,239.8c0.9,2.5,2.3,4.7,4,6.6c-5.9,2-10.9,5.4-15.4,9.8C114.2,249.2,118.1,243.8,128.6,239.8z"/> <path class="st1" d="M127.6,227.8c-0.1,0.7-0.3,1.5-0.3,2.3c-0.1,0.9-0.1,1.7-0.1,2.6c-1.6-0.3-3.2-0.6-4.8-0.9 c-2.6-0.5-7.8-0.3-9.7-1.8c-2.4,0-2.6-0.4-0.7-1.1c1.3-0.9,2.8-1.4,4.5-1.3C120.2,226.9,124,227.3,127.6,227.8z"/> <path class="st6" d="M696.1,657.2c-22.9,10.7-47.9,17.7-73.4,16.9c-19.2-0.6-37.7-7-55-15.1c-35.1-16.6-67.6-42.5-107-48.5 c-10.6-1.6-20.5-1.2-30.2,0.8c7,5.2,9.1,16.8,6.4,25.5c-4.3,13.4-15.7,24.5-27.4,31.7c-6.6,4.1-13.8,7.2-21.2,9.7 c-5,1.7-13.7,5.9-18.6,3c-1-0.6,2-3,2.4-3.2c16.8-9.5,37.3-8.9,50.6-25.2c7-8.5,10.8-22.8,1.3-31.1c-4.1-3.6-9.4-5.7-13.9-1.7 c-1.9,3.8-2.4,8.8-5.2,12.4c0,0,0,0,0,0c-0.1,0.3-0.8,1-1.5,1.7c-2.7,3-6.1,5.4-9.7,7.1c-12.5,5.7-29,3.4-42.2,2.8 c-33.7-1.5-67.7-6.4-100.7-13.3c-24.8-5.2-50.8-11.9-71-27.9c-5.4-4.3-10.2-9.2-14.3-14.7c-3.8-5.2-6.4-13.8-14-13.5 c-5,0.1-8.8,4.6-10.9,9.3c-0.7,1.6-1.2,3.2-1.5,4.7c-0.7,3.4-0.7,7-0.4,10.5c0.7,7.1,3,14,6.5,20.2c6.5,11.6,16.9,20.4,27.6,28 c12.7,9,24.5,16.6,38.9,22.7c0.9,0.4-1.3,2.8-2.1,2.5c-11-4.5-22.7-8.7-33.6-13.9c-1.7,28.2-1.9,59.7,18.1,81.5 c19.3,21,48.4,25.7,75.6,27.4c34.1,2.2,68.4,2.2,102.6,0.5c29.7-1.4,63-3.2,88.7-19.8c2.6-1.7,5.2-3.6,7.7-5.6 c27.7-22.8,27.4-62.7,23-95.2c-0.1-0.7,1.9-2.2,2-1.6c1.6,10.6,2.9,21.2,3.8,31.8c0.7,7.3,1.7,13.4,1.1,20.3c0.7,0.3,1.4,0.6,2.1,1 c0.3-0.1,0.5-0.1,0.5,0.2c10.1,4.6,20.2,8.6,31.2,10.8c10.8,2.2,21.7,1.2,32.4,3.1c0.8,0.1-1.1,1.8-1.4,1.9 c-20.3,5.4-45.7-0.1-64.3-10.7c-0.9,4.2-1.9,8.2-3.2,12.2c-0.8,5.5,0.1,10.7,0.2,16.1c10.9,1.5,21.8,4,32.8,4.5 c9.1,0.4,18.1,0.3,27.2-1c3.6-0.5,7.4-1.9,11.1-2.5c0.9-1,1.8-1.9,2.7-2.8c1.4-1.3,15.1-10.7,17.6-7.4c6.1-1.8,12.6-2.6,19.4-2.5 c11.2,0.1,22.3,1.5,33.6,1c2.8-0.1,5.6-0.3,8.4-0.5c9.2-2.7,18.9-3.8,28.1-6.6c9.7-3,19.1-6.7,28.1-11.5 c18.1-9.6,35.5-23.9,46.2-41.7c0.7-1.2,1.4-2.4,2-3.6c7.7-14.3,8.6-29.6,7-45C740.5,630,720.5,645.9,696.1,657.2z"/> </g> <g id="dark_x2F_shadows"> <path class="st7" d="M754.4,662.9c-0.4,0.2-0.9,0.4-1.3,0.6c0-1.7-1-2.5-2.6-2.8c2.8-3.6,8.6-10.2,7-14.3c-0.4-1.2-2.5,0.6-2.9,1 c-4,4.3-6.5,9.4-10.3,13.9c-1.5,0.4-2.9,0.9-3.7,1.2c-5.2,2-9.8,5-13.9,8.7c0,0-0.1,0.1-0.1,0.1c-7.5,6.4-14.3,14.9-24.6,16.1 c-6.2,0.7-11.1-0.7-16.9,2.5c-2.9,1.6-9.3,6.8-11.4,11.5c-12.6,3.6-25.5,6.1-38.8,7.6c-6.5-1.2-14.9-0.1-20.6-0.7 c-11.1-1.2-21.7-5-32.8-5.6c-7.6-0.4-14.9,1.4-20.8,5.3c-20.6-4-37.2-16.6-53.4-29.3c-1.3-3.6-2.5-7.2-3.5-10.9 c-0.1-0.2-0.3-0.3-0.6-0.2c-1.4-5.7-2.9-11.4-4.7-17c-2.2-0.9-4.4-2.1-6.5-3.4c-0.9,0.8-1.8,2-1.9,2.5c0,0.1,0,0.1,0,0.2 c-0.3,0.3-0.5,0.6-0.5,0.8c-0.7,3.2-1.3,6.3-2,9.5c-1.3,4.1-2.5,8.2-3.9,12.2c-0.3,0.3-0.6,0.6-0.7,0.8 c-8.6,11.9-15.8,24.1-26.1,34.7c-2,1.2-3.9,2.5-5.8,3.6c-8.2,5.1-16.5,9.8-25.1,14.1c-4.1-0.3-8.2-1.3-12.3-1.6 c-12.4-1-23.8,3.1-34.9,8c-11.4,5.1-23.5,12.6-36.6,11.1c-6.9-0.8-12.7-4.4-18.8-7.4c-6.9-3.5-13.6-5.3-21.4-5.8 c-14.6-1-28.3,0.6-41.9-5c-16.2-11.6-30.3-26.2-44-40.5c0,0,0,0,0,0c-1.6-2.1-3.3-4.1-5-6.1c5.5,1.4,11.1,2.6,16.7,3.7 c18.6,3.6,38.2,7,57.4,7.1c4.1,0.2,8.1,0.4,12.1,0.5c14.2,0.6,29.7,2.2,43.7-0.6c0.2,0,0.8-0.5,1.2-1c5.7-0.6,11.4-1.8,17-3.3 c8.3-1.5,16.4-3.5,24.2-6.3c8.5-1.4,16.9-3.1,25.1-5.9c12.7-4.4,21.8-11.4,31.2-20.4c1.5-2.8,2.8-5.7,4-8.6 c3-7.6,4.1-16.3-0.6-23.5c-3-4.6-7.4-6.9-11.9-8.9c-0.6,0.8-1,1.6-0.9,2.1c2.4,12.2,6.9,22.8,0.8,34.9c-0.7,1.4-1.5,2.6-2.3,3.8 c0.1-0.6-0.1-1-1.2-0.5c1.3-1.3,2.6-2.7,3.6-4.3c0.3-0.5,0.8-1.5-0.2-1.4c-5.6,0.8-11.6,6.6-16.4,9.5c-0.1-0.1-0.3-0.1-0.6,0 c-6.4,1.4-12.2,5.9-18,8.8c-7.7,3.8-15.6,7.1-23.8,9.6c-0.1,0-0.2,0.1-0.3,0.1c-6.9,1.8-14,3.1-21.3,3.9c-22.3,2.4-44.8,1-66.9-1.7 c-20-2.5-40.1-5.7-59.8-9.6c-9.2-1.8-18.3-4.1-26.9-7.7c-8.5-3.6-15.7-9.5-24.2-12.9c-0.8-0.3-3.2,2.1-2.9,2.9 c1.6,4,4.3,7.3,7.6,10.1c-0.4-0.2-0.9-0.4-1.3-0.6c-1.7,28.2-1.9,59.7,18.1,81.5c19.3,21,48.4,25.7,75.6,27.4 c34.1,2.2,68.4,2.2,102.6,0.5c29.7-1.4,63-3.2,88.7-19.8c2.6-1.7,5.2-3.6,7.7-5.6c14-11.5,20.8-27.4,23.6-44.4c0,0-0.1,0-0.1,0 c0.7-3.5,1.2-7.2,1.5-10.8c0.1-0.7,0.2-1.4,0.3-2.1c0.5-3.7,0.9-7.5,1.2-11.3c0.9,9.3,2.3,18.5,4,27.7c0.2,1,0.4,1.9,0.6,2.9 c-0.2-0.1-0.5-0.2-0.7-0.4c-0.9,4.2-1.9,8.2-3.2,12.2c-0.8,5.5,0.1,10.7,0.2,16.1c3.3,0.4,6.5,1,9.8,1.5c0.1,0.3,0.2,0.6,0.2,0.9 c2.6-0.3,5,0.2,7.5,1.2c0-0.3,0-0.5,0-0.8c5.1,0.8,10.1,1.5,15.2,1.7c9.1,0.4,18.1,0.3,27.2-1c3.6-0.5,7.4-1.9,11.1-2.5 c0.9-1,1.8-1.9,2.7-2.8c1-0.9,7.8-5.7,12.7-7.4c1.5-0.1,3-0.2,4.5-0.3c0.1,0.1,0.3,0.2,0.4,0.3c0.7-0.2,1.3-0.3,2-0.5 c6.1-0.5,12.2-1.2,18.2-2c11,0.2,21.8,1.4,32.9,1c2.8-0.1,5.6-0.3,8.4-0.5c9.2-2.7,18.9-3.8,28.1-6.6c1.4-0.4,2.7-0.9,4.1-1.3 c12.4,0.1,24.6-7.9,34.4-14.7c13.8-9.7,28.3-20.6,39.3-33.4C755.3,664.2,756.2,662,754.4,662.9z M528.5,714.8 c-1.3-1.6-2.6-3.2-3.8-4.8c3,2.2,6.2,4.1,9.6,5.8C532.3,715.5,530.4,715.2,528.5,714.8z"/> <path class="st8" d="M232.7,609.7c-1.6,0.3-3.3,0.3-4.9,0c2.1-1.9,3.7-4.2,4.7-6.5c0.5-1.1,0.2-1.8-1.1-1.5c-0.7,0.2-1.4,0.7-2,1.3 c-0.5,0-1.1-0.1-1.6-0.1c1.3-1.1,2.6-2.6,1.9-3.6c-0.3-0.4-0.7-0.8-1.1-1c0.7-0.7,1.7-1.6,1.9-2.6c0.1-0.9-0.6-1-1.3-0.6 c-0.1,0-0.2,0.1-0.2,0.1c1.6-1.5,3.2-3.5,1.9-3.8c0,0-0.1,0-0.1,0c0-0.1,0-0.1,0-0.2c0-1.6-1.4-1-2.4-0.4c-0.1,0-0.1,0.1-0.2,0.1 c-7.2-1.2-13.7-1.7-20.5-5.6c-6.5-3.8-11.9-9.2-16.5-15.1c-0.6-0.8-3.5,2.1-3.2,2.9c0.2,0.5,0.4,1.1,0.6,1.6 c-0.3,0.4-0.5,0.8-0.5,1c0.1,0.8,0.3,1.6,0.4,2.5c-0.4-0.5-0.7-1-1.1-1.5c-1-1.3-4.1,2.8-4.1,3.7c-0.1,16.5,18.6,30.2,34.9,30.2 c-1.3,0.9-3.5,3.5-2.4,3.7c2.4,0.2,4.8-0.3,7-1.4c1.8,1.8,4,2.5,6.5,1.7c1.5-0.4,2.8-1.7,3.6-3 C233.5,611.1,234.2,609.5,232.7,609.7z"/> <path class="st8" d="M192.9,559c-1.3-2.6-4.2-4-6.3-6c-2.1-2.1-3.9-4.5-5.3-7c-3-5.5-3.6-11.4-4.5-17.5c-0.2-1.4-3.2,1.9-3.4,2.5 c-1.1,3.7-1.2,7.3-0.6,10.8c-0.8,0.6-1.5,1.4-1.7,1.8c-1.7,5.3-2.4,13.1-0.3,19.3c0.1,0.3,0.1,0.6,0.2,0.9c0.4,6,1.8,11.7,5.6,15.3 c0.5,0.5,1.6-0.2,2.4-1.1c0.1,0,0.1,0.1,0.2,0.1c1,0.3,2.8-1.9,2.8-2.8c0-0.4-0.1-0.8-0.2-1.2c0.9,0.4,2,0.6,3,0.6 c1-0.1,3.6-2,3.3-3.3c-0.4-1.3-1-2.1-1.8-2.8c0.7-0.3,1.4-1.1,1.5-1.8c0.1-0.8-0.2-1.1-0.6-1.5c0.5-0.4,0.8-0.9,0.9-1.4 c0.1-0.4,0.1-0.7,0.1-0.9c0,0,0-0.1,0.1-0.1c0.3,0,0.6,0.1,0.9,0.1C190.5,563.2,193.6,560.5,192.9,559z"/> <path class="st8" d="M273.6,621.9c-2.1-2.7-6.3-3.6-9.1-5.3c-3.1-1.8-5.9-4.2-8.1-6.9c-0.2-0.2-0.6-0.1-1,0.2 c-1.8-2.2-3.4-4.5-4.6-7c-2.6-5-3.7-10.4-4.3-15.9c-1.3,0.9-2.6,1.4-3.5,1.4c-0.4,2.9-0.4,5.8-0.1,8.7c-0.8,0.5-1.9,1.8-1.9,2.3 c0.5,6.8,3.4,13.1,8.3,17.9c4,3.9,10.2,7.8,16.1,7.2c1.6,0.7,3.2,1.1,5,1C271.3,625.4,274.6,623.1,273.6,621.9z"/> <path class="st8" d="M315.5,625c-0.2-0.1-0.5-0.1-0.7-0.1c0-0.2,0-0.4,0-0.7c-0.1-0.8-0.3-1.5-0.4-2.3c-0.3-1.6-0.6-3-1.2-4.5 c-0.3-0.8-1.3-0.3-2.3,0.6c0-0.1,0.1-0.3,0.1-0.4c0.3-1.5-1.2-1-2.1-0.6c-1.5,0.8-2.9,2.3-3.7,3.9c0,0,0,0.1,0,0.1c0,0-0.1,0-0.1,0 c-0.7,0.3-1.3,0.5-2,0.7c-0.4,0.1-0.9,0.3-1.4,0.4c-2.4-0.1-4.8-0.5-7.1-1.1c-4.8-3.2-9.3-7.9-12.4-12.6c-0.5-0.7-2.5,1.6-2.4,2.2 c0.4,2.9,1.1,5.5,2.3,7.9c-0.1-0.2-0.3-0.4-0.3-0.6c-0.5-1.2-3.4,1.7-3.3,2.7c0.7,6.7,7.7,11.9,14,8c5.8,3,12.4,4.6,18.2,1.3 c0.4,0.1,0.9,0.1,1.3,0c1.2-0.1,2.6-1.7,3.2-2.6C315.4,626.9,316.5,625.3,315.5,625z"/> <path class="st8" d="M356,627.2c-1.4-0.4-2.9-0.2-4.3,0.1c0-0.1,0-0.2,0-0.4c-0.1-0.4-0.3-0.8-0.4-1.1c0-0.3-0.2-0.5-0.5-0.5 c-0.8-0.1-1.7-0.2-2.5-0.3c0.2-0.2,0.3-0.4,0.5-0.6c0,0,0,0,0,0c0.8-0.6,1.7-1.2,2.5-1.9c0.8-0.6,2.8-2.4,2.4-3.7 c-0.4-1.2-2.3,0.3-2.8,0.6c-1.6,1.2-3.1,2.6-4.6,4c-0.5,0.2-1,0.4-1.5,0.6c-0.3,0.1-0.6,0.1-1,0.2c-4.1-0.8-8.2-1.9-12.1-3.4 c-2.2,1.8-4.8,3.1-6.6,2.6c0.6,1.6,1.3,3,2.9,4.3c1.7,1.4,3.9,2.3,6.1,2.6c6,3.3,13.1,4.3,19.3,0.9 C354,630.9,357.7,627.8,356,627.2z"/> <path class="st8" d="M402,624.4c-0.5-0.8-2,0.4-2.5,0.7c-0.3,0.3-0.6,0.5-1,0.7c2.1-2.7,3.2-5.3,0.1-7.9c-0.3-0.2-0.7-0.3-1.1-0.2 c0-0.3-0.1-0.7-0.1-1c0.5-1.7,0.8-3.5,0.6-5.4c-0.1-0.9-0.8-0.8-1.7-0.4c-4.1-15.6-15.6-31.1-28.8-37.2c-0.7-0.3-2.9,1.6-2.3,2.3 c6,7.7,13,14.8,17.9,23.3c3.3,5.7,4.9,11.6,6.6,17.6c-5.6,3.9-15.4,1.2-20.5-1.7c-0.7-0.4-1.9,0.2-2.9,1.1c-0.4,0.1-1,0.5-1.1,0.6 c-0.6,0.5-1.4,1.2-1.4,2c0,1-0.2,2.1,0.5,2.9c0.2,0.2,0.6,0,1-0.4c0.2,0.2,0.4,0.4,0.6,0.6c-1.8,1.7-3.3,4-2.5,5.1 c4.9,7.1,17.9,8.9,25.7,6.3c1.1-0.4,2.2-0.9,3.3-1.5c3.1-0.7,5.7-2.4,8.1-4.7C401,626.8,402.5,625.2,402,624.4z"/> <path class="st6" d="M170,645c0.9,0.7,1.9,1.4,2.8,2c7.1,5,13.8,9.6,20.9,13.7C186.8,654.1,179.2,648.5,170,645z"/> <path class="st7" d="M288,711.8c-1.8-2.3-6-2.7-8.7-3.4c-3.4-0.9-6.8-1.5-10.1-2.5c-3.2-1-6-3.4-9.4-3.4c-3.3,0-7.6,4.5-8.2,7.5 c-1.9,8.3,7,10,13.5,10.3c7.5,0.4,14.7,1.1,21.9,2.7c1,0.2,2.7-1.7,2.8-2.5C290,717.9,289.6,713.9,288,711.8z"/> <path class="st7" d="M368.1,726.1c-2.2-3.4-12.7-1.2-16.2-1.3c-8-0.4-15-4.2-23.1-2.2c-2.2,0.5-5.1,3.3-5.2,5.7 c-0.4,9.6,12.2,11.4,19.7,11.3c8.8,0,17-4.2,23.2-10.2C367.2,728.8,368.8,727.1,368.1,726.1z"/> <path class="st6" d="M317.5,743.8c-0.6-1.6-1.2-3.4-2.5-4.4c-0.9-0.7-1.9-1.1-2.8-1.9c-0.9-0.7-1.4-1.5-2.2-2.3 c-3.3-3.2-8.8-1.9-12.4-0.3c-2.2,0.9-7.5,5.3-6.1,8.1c1.5,2.9,6.4,2.7,9.2,2.4c5.2-0.4,9.9,0.5,15,0.1 C316.3,745.6,317.8,744.5,317.5,743.8z"/> <path class="st6" d="M471.2,704.9c-5.4,4.9-10.7,10.6-17.7,13.3c-0.4,0.2-2.1,2.2-1.1,2c1.1-0.2,2.1,0.1,3.2-0.1 c1.1-0.2,2.2-0.7,3.2-1.2c2.2-1.1,4.2-2.5,6-4.1c2.7-2.3,7.3-6.4,7.5-10.2C472.4,704,471.2,704.8,471.2,704.9z"/> <path class="st6" d="M591,709c-0.3-1.3-1.1-2-2.2-2.4c-1.3-0.5-2.4-0.6-3.8-0.7c-1.5,0-2.7,0.3-3.9,0.9l-0.3,0 c-1.2,0-6.2,4-4.7,5.1c-0.4-0.3,0.6,1.9,0.7,2c0.4,0.4,0.9,0.7,1.3,1c1.1,0.7,2.3,1.2,3.6,1.3c3.1,0.1,6.6-1.5,8.4-4 C590.8,711.2,591.3,710.1,591,709z"/> <path class="st6" d="M696.5,690.7c-3-0.3-6.6,1.1-9.3,2.2c-1.5,0.6-2.9,2.1-3.8,3.4c-0.4,0.6-1.4,2.3-0.2,2.5 c2.7,0.5,6.2-0.3,8.7-1.3c1.7-0.6,3.4-2.5,4.3-3.9C696.7,693.1,698,690.8,696.5,690.7z"/> <path class="st9" d="M372.2,294c-3.7-8.4-9.4-12.8-16.1-14.4c-8.5-4.6-18.7-3.2-27,1.7c-0.3,0.2-1.9,1.8-2.6,3.1 c-3.8,2.4-7.5,5.3-10.9,8.4c-6.9,5.1-12.9,11-17,16.5c0.3-0.6,0.5-1.3,0.8-1.9c0.4-0.9,0.2-1.1-0.3-1c0.9-1.8,1.7-3.6,2.7-5.4 c2.8-2.4,5.9-4.8,9.2-7.1c0.4-0.3,3.8-3.9,2.2-3.9c-0.2,0-0.5,0-0.7,0c2-1.4,4-2.8,5.9-4.4c0.6-0.4,4.2-4.1,2.2-4.7 c-5.4-1.5-13,4.8-17.2,7.8c-4.1,2.9-8,6.3-11.5,10c-0.9,1-1.8,2.1-2.7,3.2c-4,5.3-7,11.3-9.3,17.5c-2.7,4.6-5,9.4-6.9,14.5 c-3.4,9.3-5.1,19.2-4.9,29.1c0.2,8.3,1,21.8,8.8,26.7c2.4,1.5,8.1-3,10.6-6.9c1.6,2.5,3.5,3.2,5.6,5.5c3.6,3.8,4.9,8.8,9.1,12.3 c1.2,1,4.7-2.8,4.1-4.1c-1.8-3.7-4.9-7-6.3-10.9c-1.4-3.8-1.4-8.9-2.5-12.9c-0.7-2.6-1.4-5.1-2.1-7.6c0.9-6.3-0.2-12.2,0.1-18.6 c0.4-9.5,2.9-18.9,7.1-27.4c5.5-11.2,13.6-19.7,23-27.2c2.3-0.9,4.6-1.6,7.1-2.1c6.3-1.4,12-1.4,16.8,0.1c1.5,1,2.9,2.3,4.2,3.8 c7.3,8.6,8,21.2,7.8,32c-0.5,27-10.7,51.5-26,73.4c-5.5,7.9,5.5,2.6,8.1-0.7c0.9-1.1,1.7-2.2,2.5-3.3c-0.1,1.2,2,0.2,2.8-0.4 c1.4-1.1,2.9-2.5,4.3-4C381.9,370.6,385.2,323.3,372.2,294z M280.8,361.5c0.6-3.2,0.9-6.4,1.1-9.6c0,0,0,0,0.1,0.1 c0,1.2-0.1,2.5,0,3.7c0.1,5.2,0.7,10.9,1.9,16.3C282.3,368.8,281.3,365.2,280.8,361.5z"/> <path class="st10" d="M586.8,378.5c-1.1-2-2.3-4-3.4-5.9c-1.1-1.3-2.2-2.6-3.2-3.9c-2.4-5.5-6.1-10.8-9.1-15.5 c-6.7-10.3-14.8-19.8-23.4-28.5c-7.6-7.7-15.8-14.6-24.2-21.5c-5.5-3.6-11-7.2-16.9-10.3c-5.4-2.7-10.9-4.9-16.5-7 c6.2,8,18.5,13.3,26.1,19.6c8.7,7.2,16.4,16,23.5,24.7c7.2,8.7,13.7,17.9,19.5,27.6c3.1,5.1,6,10.2,8.6,15.5 c1.8,3.8,3.1,8.5,5.8,11.8c-0.1,0.3-0.2,0.7-0.2,1.1c-0.1,0.8-0.1,2.1,0.7,2.5c0.1,0,0.2,0.1,0.2,0.1c0,0.1,0,0.2,0.1,0.3 c0.3,0.8,1.8-0.2,2.7-1.3c1.8,0.4,4.6-2.4,5.5-4.3c1.4,2,3.2,3.5,5.7,1.2c0.4-0.4,0.8-0.9,1.1-1.4 C588.5,381.6,587.7,380.1,586.8,378.5z"/> <path class="st10" d="M603.2,412.8c-3.4-8.9-7.5-17.5-11.9-25.9c-0.7,0.9-1,1.7-0.8,2.2c0.1,0.3,0.2,0.6,0.4,0.8 c-0.6,0.6-1.1,1.4-1,1.7c0,0.2,0,0.4,0,0.6c-1.7,2.6-2.9,5.5-4.1,8.4c-2.9,5-5.4,10.2-8.2,15.3c-0.8,1.5-0.6,2.7,1.2,2.5 c0.7-0.1,1.4-0.4,2.2-0.9c4.5,2.3,9.3,4.3,14.4,3.5c0.5-0.1,1.4-0.6,2.4-1.3c0.1,0.2,0.2,0.4,0.2,0.6c0.4,1,1.6,0.7,3-0.1 c1.6,2.3,3.6,4.1,6.1,4.5c0,0,0.1,0,0.1,0C606.1,420.8,604.7,416.8,603.2,412.8z"/> <path class="st10" d="M626,468c-0.5-6.2-1.2-12.2-2.4-18.1c-0.7,0.5-1.4,1.2-2,1.9c-3.1-0.4-6.4,0.1-9.4,0.4 c-0.7,0.1-2,1.3-2.9,2.5c-0.8,0.2-1.6,0.5-2.3,0.9c-0.7,0.4-1.3,0.9-1.8,1.6c-0.1,0.2-0.7,1.2-0.1,1.2c1.1,0,2.4,0.1,3.7,0 c0.5,0.3,1,0.6,1.6,0.9c1.3,0.7,2.8,1.4,4.2,1.9c0.2,0.1,0.5,0.1,0.7,0.1c0.1,1.5,0.3,2.8,0.6,4.3c0.6,2.3,0.9,5.1,3.7,5.3 c0.7,0.1,1.5-0.4,2.2-1c0.6,2.2,1.6,4.1,3.7,4.7c0.3,0.1,0.5,0,0.8-0.1C626.3,472.3,626.2,470.1,626,468z"/> <path class="st10" d="M383.1,323.7c-0.1-1.5-5.5,2.6-5.6,4.6c-0.5,15.8-2.8,33.9-8.9,50c-9.1,6.3-15.8,16-25.9,21.4 c-13.2,7.2-30.9,9-43.8,0c-7.6-5.2-12.4-15.1-22.9-10.6c-2.7,1.2-6.4,3.7-8.8,6.7c-0.1-0.1-0.3-0.3-0.4-0.4c-1.9-1.6-6.4,4-6.3,5.7 c0.8,16.7,18.1,27.9,33,31.3c16.7,3.9,33.9-1.5,47.8-10.9C374.4,399.3,384.6,361.7,383.1,323.7z"/> <path class="st10" d="M448.6,556.5c-10.5-4.9-20.1-4-30.3,0.5c-0.5,0.2-3,2.9-1.5,2.7c10-1.4,21.2,0.2,29.6,6.1 c2.8,2,5.4,4.3,7.6,6.9c2.7,3.2,4.1,7.6,7.4,10.1c1.6,1.2,4.7-3,4.8-4.3C466.4,568.8,456.6,560.3,448.6,556.5z"/> <path class="st10" d="M243.9,541.7c-0.2,0-0.3,0.1-0.5,0.1c-2.7,0.9-5.3,3.9-6.7,6.1c-5.1,8-12.6,16.9-15.1,26.1 c-0.6,2.4,2.2,0.8,3.9-0.3c0.2,2.8,1,5.5,2.8,7.7c0.8,1,1.8,2.6,3,2.9c0.1,0,0.1,0,0.2,0c0.5,1.1,1.3,2,2.3,2.7c1,0.6,2.4,0,3.7-1 c0,0,0.1,0.1,0.1,0.1c0.7,0.5,1.8-0.4,2.6-1.4C234.8,572.2,238.5,554.7,243.9,541.7z"/> <path class="st10" d="M279.9,586.7c-0.7-5-0.6-10,0.1-14.9c0.7-5-8.5,3.6-9.2,5.3c-1.9,4.3-3.2,8.6-3.4,13.3 c-0.2,3.9-0.1,10.3,3.7,12.4c0.2,0.1,0.4,0.1,0.6,0.1c0,0,0,0,0.1,0c0.2,0.1,0.3,0,0.5,0c0.3,0.6,0.5,1.2,0.8,1.8 c0.2,0.1,0.4,0.2,0.6,0.3c0.7,0,1.5,0,2.2,0c2.2,0,4.4-2.7,5-4.6C282.6,595.5,280.6,591.8,279.9,586.7z"/> <path class="st10" d="M312.1,586.3c-1.8,1.5-3.4,3.9-3.7,5.1c0,0.1,0,0.2-0.1,0.4c-1.7,2.4-2.9,5.1-3.6,7.9 c-0.8,3.2-1.7,11.4,3.2,11.2c0,0,0.1,0,0.1,0c0.3,1.1,0.6,2.3,1,3.4c0.3,1,1.6,0.6,3-0.4c1.5,3.2,3.9,5.8,7.3,5.5 c0.3,0,0.7-0.1,1-0.3C313.4,610.4,311.3,597.9,312.1,586.3z"/> <path class="st10" d="M362.4,582.4c0.1-7.7-1.2-15.2-4-21.6c-0.6-1.4-3.7,1.9-3.8,2.8c-2.1,18.8,1.5,36-7.3,53.8 c-1.9,3.8,3.2,0.6,5.4-1.4c-0.1,0.7-0.3,1.5-0.4,2.2c-0.7,3.3,6.9-2.5,7.5-4.9C362.3,602.8,363.3,592.5,362.4,582.4z"/> <path class="st10" d="M451.8,611.1c3.8,0.4,7.4,1,11,1.6c4.9,0.6,9.7,1.8,14.5,3.4c9.9,1.1,19.7,4.6,29,9 c-5.2-3.5-10.3-7-15.4-10.6c-8.4-3.8-17-7.1-25.7-9.5c-16.3-4.5-30.4,1.3-46.5,1.6c-7.3,0.1-12.1-3.5-16-8.4c-1.9-4-3.8-8.1-7-11.2 c-3.1-5.5-6.4-10.9-11.1-14.2c-0.7-0.5-2.5,1.5-2.4,2.2c1.6,7.7,6.3,14,10.2,20.7c1.2,2,2.3,4,3.5,6c0.6,1.5,1.3,3.1,2,4.7 c1.6,3.9,2.6,9.5,6.7,11.2c0.4,0.1,0.8,0,1.3-0.3c0.3,0.1,0.6,0.3,1,0.4c2.2,0.6,4.6,0.1,6.5-1.1c1.1-0.7,2.9-2,3.9-3.5 c2-0.1,4.1-0.4,6-0.6C433.2,611.1,442,610.1,451.8,611.1z"/> <path class="st10" d="M432,201.9c-0.2-0.2-0.5-0.1-0.8,0.2c0-0.1,0-0.1-0.1-0.2c0,0,0,0,0,0c-0.1-0.2-0.1-0.4-0.2-0.5 c0-0.1-0.3,0.2-0.3,0.3c0,0.1,0,0.1,0,0.2c0,0,0,0,0,0c-0.2-0.1-0.6,0.1-1,0.4c-0.3-1-0.6-1.9-1-2.8c0.6-1.8,0-2.2-1.1-1.9 c0,0,0,0,0,0c-0.7-1-3.4,1-3.8,1.4c-0.2,0.2-0.5,0.4-0.7,0.6c-0.7-1.2-1.7-2-3.1-2.2c-0.8-0.1-1.8,1.1-1.9,1.8 c-0.5,1.7-0.4,3.2-0.3,4.8c-0.7,2.7-1.2,5.6-1.1,8.4c-4.1,7.6-9.5,14.4-16.5,19.7c-0.2,0-0.4,0.1-0.8,0.3c-8.6,5-17.2,7.9-26.2,10 c-3.1,0.2-6.4,0.3-9.7,0.2c0-0.7-0.2-1-0.7-1.1c0.1-0.2,0.3-0.4,0.4-0.6c0.7-1.1,0.7-1.4,0.2-2.3c-0.8-1.4-2.8-1-5.2,0.5 c0.2-2.3-2.9-0.6-5.4,1.4c-0.3,0-0.5-0.1-0.8-0.1c0.8-1.2,0.8-1.8-0.4-0.1c-1.6-0.2-3.2-0.3-4.8-0.4c-1.2,0-6.1,3.8-4.6,5 c1.2,1,2.6,1.8,4,2.6c-0.2,0-0.5,0-0.7,0.1c-1.1,0.1-6.5,4-4.8,5.3c0.5,0.4,1,0.7,1.5,1.1c-0.3,0.4-0.6,0.7-0.8,0.9 c-3.8,4.9-6.9,10.1-8.6,15.9c-1,1.5-2,3.1-2.9,4.6c-1.2,2.1,0.2,2.2,1.6,1.3c-0.1,0.9-0.2,1.7-0.3,2.6c0,0.9,0.9,0.6,2.2-0.2 c0.9,0.4,3.5-1.6,3.9-2c7.9-8.3,15.9-14.7,26.2-19c9.7-0.9,19.9-4.4,28.1-8.4c3.3-1.1,6.6-2.5,9.7-4.4c0.5-0.3,1.9-1.5,3.1-2.8 c1.8-1.1,3.5-2.4,5.1-3.8c0.2-0.1,1.3-1.4,1.8-2.3c3.2-2.8,6.1-5.7,8.9-8.9c3.4-4,8.8-10,10.8-16c0,0,0,0,0,0c0,0,0,0,0,0 c0,0,0,0,0,0c0,0,0,0,0,0c0.2-0.4,0.5-0.7,0.7-1.1c0.5-1,0.8-2.2,1-3.3C433,205.3,433.2,203.4,432,201.9z"/> <path class="st4" d="M168.9,219.2c-4.2-8.5-14.5-11.7-23.2-9.3c-1.1,0.1-2.2,0.2-3.3,0.4c-1,0.2-5,4-3.3,4.5 c0.2,0.1,0.5,0.2,0.7,0.2c-0.9,1.4-1.2,2.5,0.3,2.3c1.5-0.2,3-0.2,4.4-0.1c3.5,2.1,6.8,5.1,8.9,8.2c4,5.9,3.6,12.4,1.7,18.9 c-0.7,2.4,2.1,1.4,3.1,0.9c0.2-0.1,0.5-0.3,0.7-0.4c0.9-0.1,2.5-0.9,3.7-1.8c0,0.4,0.1,0.9,0.3,1.2c0.5,0.7,2.2-1,2.4-1.2 C171.5,236.8,172.7,226.8,168.9,219.2z"/> <path class="st4" d="M805.2,516.4c-0.3-0.6-0.6-1.2-0.9-1.7c-0.4-0.3-0.9-0.4-1.3-0.2c-9.7,0.9-19.7,1.3-29.3,3.1 c-1.5-0.4-2.9-1.1-4.2-1.8c1.5-9.3,0.8-18.7-1.7-27.7c2-4.2,4.2-8.3,7-12.2c0.7-1,2.3-4.9-0.6-4c-4.4,1.4-9.2,0.8-13.4-1.1 c-0.2-0.4-0.4-0.8-0.7-1.3c-5.2-9.1-15.2-18.1-2.1-25.3c5.5-3,10.2-5,14.7-9.5c0.9-0.9,5.4-5.7,3.4-7.2c-8.5-6.7-17.3-9.3-27.5-8.8 c1.5-1.5,3-2.9,4.5-4.4c0.4-0.3,1.4-1.1,2.3-2.1c0.9-0.4,1.7-0.9,2.5-1.5c0.6-0.4,3.7-3,2.7-4c-1.4-1.3-3.9-0.8-6.2,0 c-2.2-0.7-4.3-1.2-6.5-1.4c2.3-1.2,4.6-2.4,6.9-3.7c1.5-0.8,9.3-6.8,6.8-9.1c-7.3-6.6-14.7-6.9-23.6-5.5 c2.9-7.2,10.2-18.8,1.2-23.3c-5.8-2.9-9.7,3.6-15.3-1.5c-5.5-5.1-8.3-11.3-14.6-15.9c-3-2.2-11.7,6.6-10.7,9.8 c1.6,5,4.2,12.9,8.3,18.3c1.8,12.8,6.6,25.5,10.3,37.9c3.9,13.1,7.6,26.3,11.3,39.4c7.3,26.2,14.5,52.5,21.6,78.7 c0.6,2.2,5.1-0.4,8.2-3.6c0,0.2,0,0.3,0.1,0.5c0.2,2,2.7,0.6,5.2-1.6c7.6,2.9,18.1,2,25.3-1.6c4.6-0.3,8.8-0.7,13.1-3.2 C803,520.2,806,518,805.2,516.4z"/> <path class="st4" d="M741.8,344.6c-2-1.1-4.5-0.5-6.7-0.2c-3.2,0.5-6.3,1.4-9.3,2.6c-0.6,0.2-4.3,3.7-2.6,4 c5.1,1,11.8-1.1,16.3-3.4C739.9,347.4,742.8,345.1,741.8,344.6z"/> <path class="st4" d="M787.4,491.1c-4.4,1.6-8.5,3.6-12.6,5.9c-1.3,0.7-2.6,1.8-3.3,3.2c-0.3,0.6-0.9,2.2,0.5,1.8 c4.1-1.3,8.2-2.9,12-4.9c1.6-0.8,3.2-2.3,4-3.9C788.4,492.6,789.1,490.5,787.4,491.1z"/> <path class="st1" d="M765.2,427.3c-4.9,0.5-9.5,1.8-14.3,2.4c-0.6,0.1-3.1,2.2-2.3,2.8c2.9,2.1,5,3.5,8.7,3.3 c4-0.2,7.7-1.7,10.4-4.8c0.6-0.7,1.2-1.4,1.1-2.3C768.6,426.6,766.7,427.1,765.2,427.3z"/> <path class="st1" d="M735,368.7c-5.2,2.4-9.3,5.8-14.1,8.8c-0.4,0.2-1.7,1.9-0.5,1.5c1.8-0.7,3.9-0.9,5.8-1.6 c2.1-0.8,4.2-1.9,6.1-3c1.6-0.9,3.4-2.4,4.2-4.2C737.1,368.7,736.5,368,735,368.7z"/> <path class="st1" d="M761.3,497.6c-2.8,1-5.3,2.7-7.9,4c-0.8,0.4-1.7,1.2-2.1,2c-0.2,0.5-0.5,1.3,0.3,1.1c1.9-0.3,3.7-0.1,5.6-0.7 c1.9-0.6,3.5-2.2,4.6-3.8C762.1,499.6,763.2,496.9,761.3,497.6z"/> <path class="st11" d="M762.9,480.7c-0.1-0.2-0.3-0.3-0.4-0.5c-0.4-0.3-0.8-0.3-1.3-0.2c-5.3,1.1-10,3.5-14.5,6.3 c-0.9-2.7-1.7-5.3-2.6-7.9c-1.9-6-3.8-12-5.7-18c5-1.7,9.7-4.3,13.5-8c0.4-0.4,1.9-2,0.9-2.5c-2.6-1.1-6.5,1.6-8.8,2.6 c-2.4,1-4.8,2.2-7.1,3.3c-2.5-7.8-4.9-15.5-7-23.4c-1.5-5.3-2.9-10.7-4.3-16c0.7-0.2,1.3-0.4,2-0.6c3.7-1,6.9-2.2,9.9-4.6 c0.9-0.7,2.8-2.6,2.2-3.9c-0.1-0.2-0.2-0.4-0.3-0.6c-0.3-0.2-0.7-0.3-1.1-0.1c-4.8,0.6-9.8,2-14.3,4c-2.2-8.3-4.3-16.6-6.3-24.9 c-0.7-2.9-1.4-5.8-2.1-8.7c4.5-1.9,9-3.7,13-6.6c0.6-0.4,3.9-3.2,2.8-4.2c-2.8-2.4-9.1,1.1-11.8,2.3c-1.8,0.9-3.6,1.8-5.4,2.8 c-0.6-2.4-1.1-4.7-1.7-7.1c-1-4-1.7-8.7-3.1-12.9c6.9-2.1,13.7-4.6,20.4-6.9c8.6-3,17.2-5.5,25-10c0.5-0.3,3.4-3.6,2.1-3.6 c-8.8,0-18.3,5.2-26.5,8.2c-7.6,2.8-15.3,5.4-22.7,8.6c-0.6-1.2-1.4-2.4-2.3-3.4c-0.8-0.9-3.2,2-3.3,2.7c-0.1,1.1-0.2,2.2-0.3,3.3 c-1.1,0.9-3.8,4.3-2,3.9c0.6-0.1,1.3-0.3,1.9-0.5c0.1,7.7,1.8,15.8,3.7,23.6c-0.2,0.1-0.3,0.2-0.5,0.4c-1,0.8-5.2,6.4-1.2,4.8 c0.9-0.4,1.8-0.8,2.7-1.2c1,3.9,2,7.7,2.9,11.3c3.8,16.4,8,32.8,12.4,49c4.2,15.7,8.1,31.5,12.8,47.1c2.2,7.1,4.1,14.6,6.8,21.5 c2.6,6.8,5.5,15.4,9.6,21.5c1.2,1.8,6.2-4,6.1-5.5c-1.2-11.7-5.1-23.5-8.9-35c4.1-1.2,8.1-2.6,11.7-5.2 C760.8,485.2,764.1,482.1,762.9,480.7z"/> <path class="st2" d="M512.2,484.5c-1.1-0.1-3.3,2-3.1,3.1c1.7,9.4,9.9,17.2,13.8,25.9c2.1,4.8,3.8,9.7,4.7,14.9 c0.8,4.3,0.5,8.4,2.5,12.3c1.3,2.4,7.4-5.2,7.7-6.4C541.9,518.8,530.3,486.5,512.2,484.5z"/> <path class="st12" d="M538.6,531.3c-2-8.4-4.8-16.7-8.3-24.6c-3.7-8.2-8.4-20.7-16.6-24.9c-1.8-0.9-5.8,3.2-5.4,4.9 c1.5,8,7.3,14.8,10.8,22.2c4.5,9.5,8,19.6,10.4,29.9c2,8.8,3.2,17.9,3.6,26.9c0.2,6.2-3.1,19.3,1,23.9c1.2,1.3,4.4-2.7,4.8-3.6 C546.9,570.7,542.5,547.5,538.6,531.3z"/> <path class="st12" d="M590.5,386.4c-3.6,1.9-6.1,5.1-8.3,8.4c-0.8,0.6-1.5,1.2-1.7,1.5c-12,16.4-21.8,34.8-30.8,52.9 c-4.4,8.9-8.5,17.9-12.1,27.1c-2.7,7-6.7,15.1-6.1,22.7c0.1,1.3,2.9-1.7,3.1-2c8.8-16.9,14.2-35.6,22.8-52.7 c3.9-7.8,8.2-15.3,12.5-22.8c-0.2,2,3.1-1.3,3.4-1.7c1.6-2.1,3-4.3,4.3-6.6c0.8-1.3,2.5-3.8,2-5.4c-0.1-0.5-0.8,0-1.2,0.4 c1-2,2.1-4,3.3-6c1.4-2.1,2.8-4.2,4.2-6.3c1.9-2.8,5.2-5.6,5.8-9.1C591.5,386.1,591,386.1,590.5,386.4z"/> <path class="st4" d="M573.6,188.2c-2.7,2-4.8,2.2-5.8,1.3c-0.4,0.6-0.7,1.3-1.1,1.9c-0.7,1.2-6.1,5.6-4.7,2.3 c0.2-0.5,0.5-1,0.7-1.6c-0.3-0.1-0.4-0.4-0.2-1.1c3-10.8,10.2-19.7,17.4-28c4.3-4.9,8.6-9.9,12.9-14.9c-1.3,0.7-2.6,1.4-3.9,2.1 c-16.9,9.6-32.5,22.9-50.6,30.2c-1.5,0.6-2.4,0.6-2.9,0.3c-1.9,1.9-6.5,5.3-5.7,2.8c0.1-0.3,0.2-0.7,0.3-1c-0.2,0-0.4-0.1-0.3-0.3 c1.5-18.1,12-33.9,22.1-48.4c6-8.6,12.5-18.3,20.1-26.5c-2.3,0.7-4.5,1.4-6.8,2.2c-6.9,4.1-13.8,8.2-20.3,13 c-14.8,10.8-26.9,23.7-36.7,39.2c-0.6,0.9-2.3,2.3-4.1,3.6c-0.3,2.9-0.8,5.8-1.3,8.8c-0.2,0.8-4.3,5.7-5.1,4.2 c-1.8-3.7-2.5-8.1-2.6-12.8c-1.3-11.6,3.2-27.5,5.6-36.9c2.2-8.4,4.9-17.1,8.7-25.2c-2.6,2.2-5.1,4.5-7.6,6.8 c-1.3,1.2-2.5,2.4-3.7,3.6c0,0-0.1,0.1-0.1,0.1c-12,14.9-18.5,30.8-26.5,47.8c-0.4,0.8-3.3,3.9-6.1,5.9c0.3,1.3,0.5,2.6,0.6,4 c0.1,0.7-2,3.2-2.7,2.4c-6.5-7.8-10.3-18-15.7-26.6c-4.3-6.9-9.2-13.3-14.8-19.2c7.2,17.5,9.7,38,4.4,52.8 c6.5-0.9,13.1-0.8,18.2,0.9c1.1,0.4-1.5,2.7-2.1,2.8c-3.7,0.8-7.5,1.4-11.3,2c7,2.2,13.7,5.8,20,10.1c5.7,3.9,13.2,10,19.2,17 c-0.2-0.4-0.4-0.8-0.6-1.2c-0.3,0.1-0.5,0.1-0.6-0.2c-0.3-1.1-0.8-2.1-1.2-3.1c-1.2-2.1-2.4-4.2-3.7-6.3c-0.7-0.8-1.4-1.7-2.1-2.4 c-1.7-1.7-4.6-3.3-6.6-5.2c-0.4-0.3-0.8-0.5-1.1-0.8c-0.2-0.2-0.2-0.4-0.1-0.7c-0.4-0.5-0.6-1.1-0.7-1.7c-0.2-0.9,1.4-2.3,2.2-2.4 c2.3-0.3,4.2,0.7,5.9,2.2c28.7,4.2,46.3,38.7,60.4,62.6c0.8-9.9,2.9-19.5-0.4-29.9c-3.8-11.9-11.7-18.9-20.4-27.1 c-0.8-0.8,2-3.3,2.9-3.2c3,0.4,5.7,1.3,8.2,2.5c16.5,2.6,20.1,22.6,25.4,35.9c0.2,0.4,0,0.9-0.4,1.5c10.8,6.7,19,20.2,20.6,33 c0.3-0.9,0.6-1.8,0.8-2.8c0.3-1.6,0.6-3.2,0.8-4.8c-1.2-9.1,1.1-18.8-1.9-27.9c-4.3-13.3-15.4-17.9-23.9-27.7 c-0.8-0.9,2.1-3.7,3.1-3.4c3.6,1.1,6.8,2.6,9.8,4.4c4.2,0.9,8,3.1,11.5,6.1c1.7,1.4,3.9,3.5,5.6,5.8c0.2-0.6,0.5-1.3,1.1-2.2 c8.3-12.9,21.6-20.2,34.7-27.4c7.3-4,14.8-7.7,22.4-11.2C611.7,175.2,589.5,176.3,573.6,188.2z"/> <path class="st11" d="M609.1,190.8c0.1-0.6-0.2-0.9-1.1-0.9c-3,0.3-6,1.3-8.9,2.6c-2.9,0.8-5.7,2.3-8.4,3.9 c-2.1,0.9-4.1,1.7-6.2,2.2c-3.6,0.9-7.2,1.4-10.8,1.8c-6.3-6.2-17.1-9.7-24.5-11.6c-2.5-0.7-5.1-1.2-7.6-1.6 c-2.1-1.6-5.1-2.7-8.4-3.5c0.8-1,1.4-1.9,1.5-2.3c3-11.1,3.5-22,8.3-32.6c5-11.1,12.5-20.4,21.2-29c1.2-1.2,2.5-4.5-0.4-2.6 c-11,7.2-19.8,17.3-26.3,28.7c-5.4,9.4-12.7,24.2-12.4,36.3c-2.7-0.4-5.2-0.7-7.1-1.2c-5.6-1.3-11.9-2.7-16.4-6.1 c0.3-4-0.5-7.6-1-12c-0.7-7.2-0.6-14.3,0.2-21.5c1.2-11.2,4.9-21.5,7.9-32.3c0.4-1.6-2.6,1-2.8,1.3c-7.8,11-12.4,23.6-14.2,36.9 c-1,7.3-3.3,24.2,1.1,32.2c0,0,0,0,0,0.1c2,5.7,6.6,9.4,12.2,12c5,5.8,9.6,12,13.3,18.8c3.4,6.3,6.2,13,8.2,20 c1.4,4.9,1.2,12.3,4.2,16.6c0.3,1.5,0.8,3,1.3,4.3c0,0.1,0,0.1,0,0.2c-0.2,1.9-1.4,4.8-0.1,6.4c0.4,0.5,1.5-1,1.7-1.2 c0.7-1.5,1.1-3.2,1.4-4.9c1.5-1.3,3.1-3.5,3.2-3.9c3.4-10,0.9-24.7-5.3-36c-0.9-4.9-4.1-9.8-7.3-14c6.1,2.6,12.6,4.4,18.1,8.3 c0.8,0.6,1.6,1.2,2.4,1.9c5.8,8.3,12.1,15.3,15.2,25.4c1.6,5.2,2.5,10.7,3,16.2c0.5,5.1-0.7,11.2,2.3,15.4c0.2,0.2,0.4,0.3,0.7,0.3 c-0.2,2.4-0.4,4.8-0.4,7.3c0,1.2,3.4-1.9,3.6-2.7c0.7-2.8,0.9-5.6,0.7-8.3c0.2-0.3,0.4-0.6,0.4-0.7c3.5-10,2.4-25.4-2.9-37.9 c0.5-0.6,0.8-1.2,0.9-1.7c0.1-1,0.1-1.9,0-2.8c0.7,0.4,1.5,0.8,2.3,1.1c0.8,0.3,2-0.2,3.1-1.1c0.1,0,0.2,0.1,0.3,0.1 c4,1.2,8.9-2.6,9.4-6.7c0.2-0.5,0.1-0.9-0.2-1.3c-0.9-0.6-1.9-1.2-3-1.6c2.4-0.7,4.7-1.6,6.8-2.3c7.8-2.9,15.5-6.7,20.3-13.7 C608.7,192.6,609.5,191.3,609.1,190.8z"/> <path class="st4" d="M652.7,635.4c-0.7-1.3-1.8-2.4-3-3.4c0.3-0.4,0.4-0.8,0.2-1.1c-3.9-8.3-17.1-14.1-23.9-20.4 c-3.8-3.4-7.2-7.2-10.7-11c-2-2.3-4.5-4.4-6.7-6.6c-0.1-0.3-0.2-0.6-0.4-0.9c-1.9-3.8-3.9-6.9-6.4-9.7c2.8,1.4,5.6,2.9,8.3,4.5 c0.2,0.1,0.4,0.1,0.6,0.1c0.1,0.1,0.3,0.2,0.4,0.3c0.8,0.5,1.4,0.3,2.3,0.2c0,0,0,0,0,0.1c0.2,1.4,4.8-2.2,4.7-3.9 c-1.1-23.2-15.4-40.8-36.7-48.1c3.8-2.5,7.7-4.9,11.6-7.3c0.6-0.4,4.7-4.5,2.8-4.8c-2.7-0.4-5.4-0.7-8-1c0.4-0.3,0.8-0.6,1.2-0.9 c2.9-2.2,5.6-4.5,8.2-6.9c0.6-0.2,1.1-0.4,1.7-0.6c0.9-0.4,7.2-5.1,5.2-6.3c0,0,0,0-0.1,0c1.7-2,3.4-4,5-6.2c0.6-0.8,2-4.4-0.5-3.5 c-0.5,0.2-1,0.4-1.6,0.5c-6-0.2-11.4,0.5-16.6,2c0.6-0.7,1-1.3,0.5-1.6c-1-0.5-1.1-1.3-1.9-1.9c-0.5-0.3-1.3-0.5-1.9-0.7 c-1.8-0.7-3.7-1.3-5.1-2.7c-0.9-0.9-1.5-2-1.7-3.2c1.1-0.4,2.2-0.8,3.3-1.2c4.8-1.8,9.3-4.1,13.8-6.8c0.8-0.5,5.9-5.4,3.4-6 c-13.4-3.2-24.8-0.6-38,0.4c-4.2,0.3-4,1.7-3.2-3.4c0.6-4,2.9-8,4.5-11.6c2.9-6.6,6-13,9.7-19.2c1.1-1.8,1.9-5.6-1.7-3.6 c-5.2,2.9-11.1,7-15.7,12c0-0.2,0.1-0.4,0.1-0.6c0.4-1.8-3.3,1.3-3.6,2c-0.9,2.3-1.7,4.6-2.5,7c-0.9,1.8-1.5,3.6-1.9,5.6 c-3.2,9.6-6.1,19.3-9.1,29c-1.8,5.7-4,11.2-2.6,17.2c1.7,6.7,7.1,12.4,9.3,19c2.1,6.2,1.1,14.4,2.8,20.9c0.1,1.7,0.4,3.4,1.1,5.1 c0.9,2.2,2.4,4.6,4.5,5.9c1.6,0.9,3,0.8,4.5,0.4c3.7,2.7,7.3,5.3,10.7,8.4c5.1,4.6,9.4,9.9,14.7,14.2c0.5,0.4,1.2,0.3,1.9-0.2 c0.4,0.7,0.9,1.4,1.3,2c2.4,3.8,4.5,8.3,8.2,10.9c0.6,0.4,1.5,0.2,2.4-0.4c0.8,2.2,1.8,4.3,4.1,4.9c3,5.2,6.9,9.5,10.6,14.4 c7.7,10,23.5,22.7,36.8,21.8C650.7,638.6,653.4,636.6,652.7,635.4z"/> <path class="st11" d="M591.1,580.9c-3.8-4.2-7.8-8.2-12-12c-1.3-2-2.6-3.8-4.3-5.5c-6.2-6.5-10.1-11.1-13.9-19 c0.3-0.1,0.7-0.2,1-0.3c0.7-0.1,1.4-0.3,2.1-0.5c7.6,1.4,16.3-0.4,21.3-4.6c0.6-0.5,2.6-2.3,1.9-3.3c-0.9-1.4-2.4-0.9-4-0.7 c-1.6,0.2-3.2,0.4-4.8,0.5c-1.8-1.9-5.3-1.5-8.4-0.7c-4-1-7.7-2.9-11.7-4.1c-0.7-0.8-1.4-1.7-2-2.6c-0.4-0.6-0.8-1.2-1.2-1.8 c-0.5-1.9-1-3.9-1.5-5.8c1.3-0.9,2.7-1.7,4.2-2.3c5-2.2,10.3-3.5,15.3-5.8c0.9-0.4,4.2-3.1,3.2-4.2c-4.6-5.1-13.9,0.2-18.4,2.9 c-1.8,1.1-3.8,2.4-5.7,3.9c-1.1-4.5-2.6-9.3-3.9-14.3c3.7-4.3,7.5-8.6,11.9-12.1c4.9-3.9,10.8-6.7,15.2-11.3c0.7-0.8,3-3.1,2.1-4.3 c-0.1-0.2-0.3-0.3-0.4-0.5c-0.5-0.7-2,0-2.5,0.2c-2.8,1-5.6,2.4-8.3,4c0.8-1,2.1-2.8,1.2-3.2c-5.2-2.9-16.4,8-19.8,11.1 c-0.7,0.6-1.4,1.3-2.2,2c-0.3-2.8-0.3-5.5,0-8.2c0.3-2.3-3.9,1.6-4.2,2.4c-2,4.8-2.9,9.3-3.2,13.7c-2.6,3.4-4.7,7-5.3,10.8 c-0.5,2.7,3.2-0.3,4.5-1.4c-0.7,4.2-0.7,8.5,0.5,13.3c1.5,6.1,4.2,11.8,6.9,17.4c1,4.6,2,9.2,3.2,13.7c-0.4,0.7-0.5,1.5,0.3,1.1 c0.4,1.4,0.8,2.7,1.2,4c-0.1,0.3-0.2,0.6-0.2,0.9c-0.2,2.9-0.4,5.8-0.4,8.7c0,1.5,2.8-0.5,3.1-0.7c0.2-0.2,0.4-0.3,0.6-0.5 c0.1,0.2,0.2,0.4,0.2,0.6c0.8,1.7,3.4,0.1,5.5-2.1c1.4,1.7,3,3.3,4.9,4.9c8.2,7,15.1,13.1,21.2,22c0.3,0.4,1.9-1.1,1.7-1.6 c-0.2-0.7-0.5-1.4-0.7-2c0.4,0.5,0.8,1,1.2,1.5c4.2,5.9,8,15,14.9,18c0.4,0.2,1.3-0.9,1.2-1.2C602.8,593.6,596.4,586.8,591.1,580.9 z M547,494.1c-0.1-0.4-0.2-0.7-0.3-1.1c1.3-1.4,2.6-2.9,4.1-4.2c0.6-0.6,1.3-1.1,2-1.6C550.7,489.4,548.8,491.7,547,494.1z"/> <path class="st1" d="M596.4,504.9C596.4,504.9,596.4,504.8,596.4,504.9c-1-0.7-2.2,0.2-3,0.6c-3.6,2.3-7.5,4-10.7,6.8 c-0.7,0.6-2.3,2.1-1.8,3.2c1.1,2.4,5.5-0.3,7-1.2c3.1-1.7,7.1-4.3,8.4-7.7C596.4,506.3,596.9,505.2,596.4,504.9z"/> <path class="st1" d="M582.7,479.2c-1.1-1.3-3.5-0.9-5-0.5c-2.6,0.7-5,2.1-7,3.8c-3.4,2.7-7.7,6.8-7.1,11.4c0.3,2.7,6-3,6.4-3.7 c0.1-0.1,0.1-0.2,0.2-0.2c1.3-0.5,3.1-0.7,4.6-1.1c2.4-0.7,4.6-2.7,6.1-4.6C581.6,483.3,583.9,480.5,582.7,479.2z"/> <path class="st1" d="M620.1,566.8c-6.5-6.9-21.5-8.1-30.4-7.7c-0.9,0-4.2,3-2.8,3.4c4.8,1.4,9.8,2.3,14.7,3.5 c5.2,1.4,10.8,3.2,16.1,3.4C618.3,569.5,620.8,567.6,620.1,566.8z"/> <path class="st4" d="M626.7,444.8c-5.7-2-13.9-0.1-18.9,1.8c-6,2.3-12.1,5.9-15.8,11.3c-0.7,1-0.9,2.6,0.8,1.8 c4.7-2.3,8.4-5.4,13.6-6.6c5.9-1.4,11.2-0.1,17-0.4c0.8,0,3.1-1.6,4.7-3.2C627.5,448,627,446.4,626.7,444.8z"/> <path class="st4" d="M640.6,559c-0.9-1.3-2.1-2.5-3.3-3.6c-1.1-1.1-2.4-1.8-3.8-2.5c-0.5-0.3-1.1-0.5-1.6-0.7 c-1-0.4-2.6-0.6-3.5-1.1c-0.8-0.5-3.2,1.8-2.6,2.6c-0.3-0.5,1,2.6,1,2.7c0.3,0.6,0.5,1.1,0.8,1.7c0.8,1.5,1.6,2.9,2.7,4.1 c1,1.1,1.9,2.2,3,3.2c1.4,1.2,2.4,1.2,4.2,0.9c1.3-0.3,2.9-2,3.3-3.3C641.3,561.5,641.5,560.4,640.6,559z"/> <path class="st4" d="M647.2,585.9c0.2-1-0.2-1.6-1.1-1.6c-0.6-0.4-1.6-0.6-2.3-0.9c-1.3-0.5-2.6-1-3.9-1.5 c-1.9-0.6-3.8-0.8-5.5-1.9c-0.9-0.6-3.6,2.1-3,3c1.8,2.5,2.5,5.3,5.4,7c1.2,0.7,2.5,1.2,3.8,1.6c1.8,0.6,3,0,4.4-1.2 c0.8-0.7,2.1-1.7,2.4-2.8C647.6,587.1,647.6,586.5,647.2,585.9z"/> <path class="st4" d="M652.7,726.7c-1.7,0.3-3.4,0.7-5.1,1c-0.7-0.5-1.5-1-2.2-1.5c-0.2,0.1-0.4,0.1-0.6,0.2 c-1.4-0.3-2.8-0.5-4.2-0.8c-0.1-0.1-0.3-0.2-0.5-0.3c-0.9-0.2-1.9-0.3-2.9-0.3c-11.7-1.8-23.4-2.5-35.2-1.6 c-10.3,0.8-21.4,1.4-29.5,8.5c-3.9,3.4-9.9,10.8-7.7,16.6c-0.3,1.5-0.3,3-0.1,4.5c0.6-0.4,1.1-0.7,1.4-0.8 c6.5-1.9,16.1-1.7,23.9,1.1c1.6,0,3.3,0,4.9,0c-1.1,0.9-1.3,1.1-2.1,1.2c1.2,0.5,2.2,1.2,3.3,1.9c0.5,3.9,2,7.6,4.4,11.1 c5.2,7.6,18.4,15.8,27.8,14.5c0.8-0.1,2.6-1.7,2.2-2.6c-1.8-3.9-6.6-4.8-10.2-6.9c-3.7-2.2-6.8-5-9.7-8.1c-0.7-0.7-1.3-1.4-1.9-2.2 c2.1-10.5,13.7-17.7,23.6-22.5c5.2-1.5,10.3-2.6,14.4-3.8C649.3,735.1,657.1,725.9,652.7,726.7z"/> <path class="st11" d="M653.3,725.2c-6.1,0.4-11.9,1.8-17.9,2.7c-8-3.9-19.1-2.2-27.7-2.4c-8.3-0.2-18.1-1.3-25.8,2.5 c-1.3,0.6-2.7,1.7-4.2,3c-0.1,0.1-0.2,0.1-0.4,0.2c-3-0.9-6.2,2.3-8,4.2c-1.2,1.3-2.3,2.7-2.9,4.4c-0.4,0.8-0.8,1.9-0.7,2.9 c-1.2,2.4-1.7,5.1-0.5,7.4c0.7,1.2,3-0.8,4.6-2.8c0.2,0.6,0.4,1.1,0.7,1.7c1,2,2.8,3.4,4.8,4.2c2.7,1,4.6,0.2,6.8-1.3 c3.4,1.9,7.7,4.1,11.6,4c0.8,0,2.5-1.4,2.3-2.3c-1.1-4.3-7.9-5.1-11.3-7.2c-1.8-1.1-3.7-2.5-4.9-4.2c-0.6-0.8-1.1-2.1-1.2-3.4 c2.7-5.2,18.1-3.4,23.2-3.6c7.1-0.3,14.1-0.3,21.1-1.2c10.3,0.4,20.9-0.4,29.4-6.6C652.4,727.1,654.1,725.2,653.3,725.2z"/> <path class="st11" d="M397.1,197.2c-2-1.9-4.4-3.3-7.1-4.2c-2-0.9-4.3-1.4-6.6-1.3c-4.1-0.4-8.3,0-11.8,0.8 c-0.8,0.2-3.1,2.3-4.4,4.1c-1.3,0.3-2.6,0.7-3.8,1.3c-0.1,0.1-0.6,0.7-0.3,0.6c0.6-0.2,1.3-0.3,1.9-0.5c0.3,0.1,0.7,0.2,1,0.3 c-0.1,0.1-0.1,0.2,0.1,0.2c0.1,0,0.2,0,0.3,0c0,0.2,0.2,0.4,0.5,0.4c0.9,0.1,1.7,0.2,2.6,0.2c2.4,0.4,4.7,0.8,6.9,1.9 c0.5,0.3,0.9,0.7,1.4,1.1c2.2,2.1,2.9,4.4,3,7.1c-0.1,0.2-0.1,0.3-0.2,0.5c-4.5,2.4-9,4.9-13.3,7.6c-0.5,0.3-3.9,4.2-1.8,3.8 c5.7-1.2,10.8-3.8,15.9-6.5c2.8-1.5,5.6-2.9,8.2-4.6c0,0,0,0.1,0.1,0.1c0.1,0.3,0.2,0.7,0.3,1.1c-1.3,0.8-2.6,1.7-4,2.3 c-4.4,2.2-9.1,4-13.8,5.5c-0.9,0.3-3.3,3.3-2,3c6.8-1.6,14.1-4.3,20.3-8.2c0.1,4.6-3,7.6-7,9.9c-2.2,0.8-4.4,1.5-6.1,2.3 c-0.4,0.2-1.3,0.8-2,1.5c-2.3,1-4.4,2-6.2,3.1c-0.2,0.2-2.4,2.1-1.7,2.5c2.4,1.2,6.3-0.1,9.9-1.7c3.6,0.2,8.3-3,10.6-4.8 c2-1.5,3.9-3.3,5.5-5.2c0.2,0,0.5,0,0.8,0c1.8-0.2,3.9-2.9,4.9-4.2C403.1,210.8,402.6,202.6,397.1,197.2z"/> <path class="st10" d="M546.9,234.5c-1.1-0.5-3,1.6-3.7,3c-1.5-1.2-6.4,3.8-5.8,5.4c4.6,11.5,9.3,22.1,10.8,34.6 c0.3,2.5,6.5-3.5,6.8-5C556.7,262.6,558.5,239.2,546.9,234.5z"/> <path class="st10" d="M512.1,233.5c-1.7-3.5-4.2-6.9-7-10c-3.4-6.1-7.9-11.4-13.1-14.5c-0.5-0.3-1.6,0.8-1.7,1.4 c-2.3-3-4.2-6-5.6-9.3c-0.4-0.9-2.7,1.3-2.5,2.1c1.2,8.2,4.3,14.1,8.8,20.3c9.5,4.4,18.9,18.3,20.3,29.9c0.3-0.4,0.6-0.8,0.6-1 c0.1-0.9,0.2-1.9,0.2-2.8c0.2-0.4,0.3-0.7,0.4-1c0.1-1.9,0.2-3.9,0.2-5.8C512.6,239.6,512.2,236.5,512.1,233.5z"/> <path class="st10" d="M721.3,441.3c-3.2-23.7-9-46.5-19.6-68.2c-0.7-3.8-1.5-7.6-2.4-11.4c1.8-1.8,3.2-4.1,2.4-5.2 c-2.7-4-5-8.1-7-12.3c-0.1-0.4-0.2-0.9-0.4-1.3c-2.7-9.6-6.2-19-10.5-28c-1-3.3-1.9-6.6-2.9-10c-4.6-16-9.7-31.5-21.3-43.9 c-0.9-1-1.9-2-2.9-2.9c0.5-0.5,0.8-1.1,0.8-1.5c0.3-8.1-8.8-13.8-15.4-17.2c-6.8-3.5-15-6.1-22.4-3.6c0,0,0,0,0,0 c-15.3-5-31.5-5.4-44.8,2.8c-0.4,0.2-1.8,1.4-1.3,2c0.6,0.8,1.4,1.5,2.3,1.9c-1.8,1.4-4.1,4.2-2.6,4.5c0.5,0.1,0.9,0.2,1.4,0.3 c-0.4,0.7-0.5,1.3-0.1,1.5c1.8,1,3.6,2,5.4,2.9c4.1,7.8,19,10.8,26.7,12.8c0.2,0.1,0.4,0.1,0.6,0.2c9.6,4.5,19.1,9.3,27.9,15.6 c1.5,1.1,3,2.2,4.4,3.4c1.4,5.7,0.8,11.9,3.6,17.9c1.5,3.3,3.4,4.6,6.5,6.3c5.8,3.1,9.6,4.8,12.3,11.1c4.6,10.6,0.5,22.4,5,32.8 c4.3,9.9,12.4,18.8,17.8,28.2c7.1,12.2,13.6,25,18.9,38.2c2,6.7,4.1,13.3,6.2,19.9c1.2,3.8,2.4,7.7,3.6,11.5 c0.2,0.8,0.4,1.7,0.6,2.5c0.1,0.3,0.2,0.4,0.4,0.5c2.4,7.6,5,15.1,7.8,22.5c2.8,9.2,6,18.2,9.7,27.1c0.7,1.5,4.5-2.2,4.3-3.5 C733.3,479.4,727.5,460.3,721.3,441.3z"/> <path class="st10" d="M738.2,506.8c0,0.9,0.1,1.8,0.1,2.7c0,0.3,1.1-0.5,1.1-0.9c0-1,0.1-1.9,0.1-2.9 C739.5,505.5,738.2,506.2,738.2,506.8z"/> <path class="st10" d="M627.9,280.4c-1.9-1.7-3.5-3.6-5.6-5.1c-4-2.8-9.5-5-14.3-5.4c-2.7-0.2-12.6,7.7-9.7,10.6 c3.2,3.2,9.3,5.4,13.7,6.1c5.7,0.9,12,2.4,17.5,0.5c0.6-0.2,1.4-0.9,1.4-1.6C631,282,630.3,282.6,627.9,280.4z"/> <path class="st3" d="M661.8,298.2c-0.6-1.3-1.8-2.4-2.7-3.5c-0.9-1-1.7-2-2.7-2.9c-0.5-0.4-1.1-1.1-1.7-1.4 c-0.7-0.2-1.6,0.1-2.3-0.2c-1.2-0.7-4.5,2.4-4.1,3.7c0.3,0.9-0.2,1.7,0,2.5c0.2,0.6,0.6,1.3,0.9,1.9c0.7,1.3,1.7,2.4,2.6,3.6 c0.8,1,1.5,2.2,2.6,3c1.4,1.1,2.8,0.9,4.4,0.5c1.2-0.2,2.6-1.8,3-3C662.1,301.1,662.5,299.6,661.8,298.2z"/> <path class="st7" d="M417.9,614.8c-1.3-3.6-8.1,4.4-8.8,5.8c-3.5,7.5-7.5,12.8-15.7,15.1c-6.3,1.8-12.9,2.1-19.4,2.4 c-12.1,0.6-24.4,0.5-36.5-0.1c-24-1.2-48.4-3.6-72-8c-21.7-4-43.6-9.5-63.3-19.8c-8.6-4.5-16.7-9.9-24-16.3 c-7.7-6.7-13.4-14.9-20.5-22.1c-1.2-1.2-5.4,3.1-4.9,4.5c7.6,21.9,32,37.2,52.1,46.2c26,11.6,54.3,15.5,82,21 c28.6,5.7,58.8,9,87.9,5.7c11.5-1.3,22.2-4.8,30.9-12.5C410.8,632.3,420.5,622.3,417.9,614.8z"/> <path class="st10" d="M361.9,511.4c0.6-1.8,0.4-3.5-0.7-5c-2.4-1.4-4.9-2.9-6.9-4.9c-2.1-2.2-4-3.4-7.2-3.8c-4.2-0.4-7.1,0-10.9,2 c-6.2,3.2-12.1,9-14.3,15.7c-1.1,3.2-1.1,7.2-1.1,10.7c0,2.9,1.4,5.8,3.1,8.2c6.3,9.2,17.2,1.8,24.2-2.4c5.1-3,14.2-11.5,13.8-18.4 C362.4,511.3,362.4,510.5,361.9,511.4z"/> <path class="st10" d="M369,489.7c-1.1,0.1-2.2,0.3-3.2,0.3c-1.9,0.1-3.8,1.6-5.1,2.9c-0.7,0.7-1.3,1.5-1.9,2.3 c-0.3,0.5-1.3,2.1-1,2.8c0.3,0.8,0.5,1.7,0.8,2.6c0.3,0.8,0.7,1,1.4,1.2c0.8,0.3,1.6,0.1,2.5-0.1c2.4-0.7,4.3-2.4,6-4.2 c1.4-1.5,2.9-3.4,3-5.6C371.5,490.6,370.4,489.6,369,489.7z"/> <path class="st10" d="M700.1,515.9c-2.7-2.1-6.3-3-9.6-3.8c-1.9-0.4-3.7-1-5.6-1c-2.6-0.1-5.4,0.9-8,0.8c-4-0.2-8.5,3.7-11.1,6.4 c-2.4,2.5-7.1,7.2-6.4,11.1c0.6,2.8,0.2,6.2,2.9,8.2c2.4,1.8,5.9,1.8,8.5,3.1c2,1,3.8,2.6,4.8,4.6c1,1.9,0.8,4.2,2.7,5.5 c5.6,3.9,15.8-7.5,18.6-10.7c0.2-0.3,0.5-0.6,0.7-1C703.9,532,708.6,522.5,700.1,515.9z"/> <path class="st10" d="M672.2,548.2c-1-1-2.1-1.8-3.2-2.7c-0.6-0.5-1.7-0.1-2.3,0.2c-1.2,0.6-2.5,1.6-3.4,2.5c-1,1-2,2.1-2.5,3.4 c-0.2,0.5-0.8,1.9-0.2,2.3c0.7,0.4,1.4,0.8,2,1.2c0.7,0.4,1.5,1,2.3,1.2c1.3,0.2,3.3-1.2,4.2-2c1.2-1,2.2-2.3,2.9-3.8 C672.2,549.8,672.7,548.7,672.2,548.2z"/> <path class="st10" d="M654.7,645.1c0,0,0,0.1,0,0.1c0,1.2-2.6,4.7-4.1,4.1c-5.9-2.4-11.9-4.2-18.2-5c-4.6-0.6-9.7-0.2-14-1.8 c-9.8-3.6-18.2-14.5-24.7-22.3c-14.6-17.3-28-36.8-49.7-45.2c-0.2,0.9-0.4,1.9-0.6,2.8c-1.3,5-3.4,10.2-7.2,13.2 c-1-0.3-2-0.5-3.2-0.5c-2.1-1.2-6.9,4.4-6.6,6.3c1.3,10.6,7.7,19.8,15.4,27.1c2.7,2.6,5.7,4.9,8.8,7.1c1.2,1.3,2.4,2.6,3.7,3.8 c13.5,9.7,28.4,17.2,44.8,21.9c14.8,4.2,30.2,6.3,45.6,6.2c5,0,10.2-0.6,15.4-1.3C658.4,656.3,656.5,650.7,654.7,645.1z"/> <path class="st13" d="M609.2,630.8c-2-1-4-2.1-5.9-3.2c-0.2-0.1-0.4-0.3-0.6-0.4c0.4-0.7,0.6-1.4,0.2-1.7 c-4.3-3.7-9.1-6.8-14.1-9.8c-0.5-0.5-0.9-1-1.4-1.6c0,0-0.1,0-0.1,0c-0.9-8.6-9.8-15.7-15.7-21.5c-6.8-6.7-14.1-14.3-22.8-18.5 c-2.5-1.2-5.8,3.5-6.5,5.4c-0.9,2.4-1.7,4.7-1.8,7c-0.8-0.2-1.6-0.4-2.4-0.5c-1.8-0.3-7.7,5.4-5.9,6.5c20.4,12,40.3,28.8,62.6,37.3 c0.4,0.3,0.8,0.5,1.3,0.7c0.9,0.8,1.9,1.5,3,2.2c3.4,2.2,7.1,4.9,11.1,3.7c0.8-0.2,2.2-1.4,2.1-2.3 C612.2,631.8,611.1,631.7,609.2,630.8z"/> <path class="st14" d="M588.8,607.9c-1.1-1.4-1.8-3.1-3.1-4.2c-0.4-0.4-0.9-0.7-1.3-1c-2.5-3.9-6-7.7-10.1-10.8 c-1.3-1.6-2.7-3.1-4.6-4.6c-6.7-5-13.4-10.1-21.8-11.4c0.1-1.1,0.2-2.2,0.1-3.3c-0.1-1.2-2-0.1-2.4,0.2c-1.2,0.8-2.7,2.1-3.2,3.5 c-0.6,1.6-1.2,3.5-1.7,5.3c-2.5,2.2-4.2,5-3.7,7.7c0.2,1.3,1.7,0.4,3.2-0.9c2.4,1.2,5.1,1.2,7.9,1.9c2.3,0.5,4.5,1.2,6.6,1.9 c2.4,1.6,4.8,3.1,7,4.8c3.2,2.5,6.7,4,10.1,6.1c0.9,0.6,1.6,1.2,2.4,1.8c0.5,0.8,1.3,1.3,2.1,1.9c0.9,0.8,1.9,1.6,3.1,2.2 c0.3,0.2,0.6,0.5,0.9,0.7c0.5,0.3,0.9,0.5,1.4,0.8c0.2,0.1,0.3,0.3,0.5,0.4c0.2,0.1,0.4,0.2,0.7,0.1c0.6,0.3,1.2,0.6,1.8,1.1 c1.4,1.1,1.9,1.7,3.7,1.6c0.7-0.1,1.6-1.1,1.7-1.7C590.4,610,589.9,609.3,588.8,607.9z"/> <path class="st15" d="M678.1,713.2c-7.2-2.3-16.2,0.2-23.6,0.9c-11.4,1.1-22.8,2-34.2,2.7c-16.7,1-33.3,1.3-50,1.2 c-3.6-2.7-8-2.4-12.5-3.2c-6.7-1.2-13.3-2.8-19.8-4.8c-9.3-2.9-18.1-6.9-27.2-10.3c-4-7-7.4-14.3-10.1-21.9 c-0.8-9.8-2.8-19.6-7.4-28.2c-0.3-0.6-1.2,0-2,0.9c0-0.1-0.1-0.3-0.1-0.4c-0.3-0.9-2.2,1.2-2.3,1.7c-1.5,15.5-0.3,31.3-2.6,46.7 c-1.1,6.8-2.8,13.7-5.6,20c-2.2,5.1-5.9,9.4-8.2,14.4c-3.3,2.6-6.5,5.3-10,7.5c-5.7,3.5-11.8,6.1-17.9,8.8 c-3.4,1.3-6.8,2.7-10.1,3.8c-7.1,2.3-14.3,4.1-21.6,5.6c-5,1-10,1.9-15.1,2.7c-3.3,0.2-6.7,0.7-9.9,1c-6.8,0.5-13.5,1.1-20.3,1.6 c-12.1,0.9-24.2,2-36.3,2.8c-11-0.3-22-0.9-33-1.8c-5.6-0.4-11.3-1-16.9-1.7c-7.6-2-15-4.8-22.2-8.8 c-36.7-20.1-56.1-55.6-73.2-92.1c-0.1-0.3-0.4-0.3-0.8-0.1c0.3-0.7,0.3-1.4,0-2c-0.7-1.1-1.3-2.1-2-3.1c-0.7-1.1-1.4-1.5-2.6-2 c-0.8-0.3-2.5,1.2-2.9,1.6c-0.8,0.7-2.1,2-2.2,3.2c-0.1,0.5-0.1,0.9-0.1,1.4c-0.7,0.8-1.3,1.6-1.7,2.5c-0.8,1-1.3,2-1.3,2.6 c0.6,38.4,14.2,80.7,52.4,96.6c11,4.6,22.7,6.7,34.6,8c5.6,1.7,11.3,3.1,17.2,4c2.9,0.5,5.8,0.9,8.7,1.2c19.3-2.7,38.5-2.8,58-2.3 c9,0.2,18.1,0.4,27.1,0.4c24-2.2,51.8-5.4,73.3-16.9c4.8,0.8,11.4-3,15-4.9c6.5-3.6,12.8-8.3,17.4-14.1c1.4-1.8,1.8-3.2,1.5-4 c2.4-2.2,4.6-4.6,6.2-7.2c0.5-0.7,0.7-1.9-0.6-1.3c-0.1,0-0.1,0.1-0.2,0.1c3.4-4.5,6.1-9.8,8-15.6c0,0.3,0,0.5,0,0.8 c0.1,2.1,0.3,4.4,0.7,6.8c-4.1,8.8,1.9,17.5,13.2,18.8c7.4,0.8,15.1,0.5,22.7,0.2c8.6,1.5,17.9,2.2,26.6,0.8 c4.9,0.3,9.7,0,14.2-1.3c0.5-0.1,2.5-1.6,3.9-3.1c1.5-1,4.5-3.7,3.3-4.4c-0.1,0-0.1-0.1-0.2-0.1c2.3-0.5,4.6-1.2,6.7-2.2 c0.3-0.1,0.9-0.6,1.6-1.2c11.5-0.1,22.9-0.4,34.4-1c18.4-0.9,40-0.2,57.3-6.9C675.9,717.4,679.9,713.8,678.1,713.2z"/> <path class="st13" d="M595.8,622.3c-0.9-0.9-1.8-1.8-2.8-2.7c0,0,0,0,0,0c0,0,0,0,0,0c0.5,0.1,1.5-0.9,1.4-1.4 c-1-4.8-7-7.1-11.4-7.7c-0.2,0-0.5,0.1-0.8,0.4c-4.5-3.8-9-7.8-14.3-10.3c-0.6-0.3-2.1,1.1-1.7,1.7c3.6,5.3,9.1,9.5,14,13.6 c4.1,3.5,8.2,8.1,13.9,8.2C594.6,624.1,596.3,622.8,595.8,622.3z"/> </g> <g id="highlights"> <path class="st6" d="M566.4,366.7c-0.1-0.1-0.1-0.3-0.2-0.4c-2.4-4.9-4.9-9.8-7.6-14.5c-5.7-8.1-13-15.7-19.7-22.2 c-0.9-1.1-1.8-2.2-2.8-3.3c-12.2-14-26.4-26.7-42.4-36.3c0.1,0.1,0.2,0.3,0.3,0.4c1.2,0.9,2.4,1.8,3.6,2.7 c-0.8-0.5-1.7-0.9-2.6-1.4c2.2,3,4.2,6.2,6.2,9.4c2.3,1.7,4.6,3.5,6.8,5.6c7.1,6.9,14,14.1,20.7,21.3c6.4,6.9,12.7,13.9,18.3,21.5 c6,8.1,10.2,19,17.2,26c0.9,0.9,3.7-2.3,3.5-3.2C567.5,370.5,567,368.6,566.4,366.7z"/> <path class="st6" d="M437.6,546.6c-7.2-0.1-13.7,2.1-19.9,5.7c-1.2,0.7-4.4,5.7-1.5,4.2c6.2-3.4,12.9-4.8,20-3.9 c6.2,0.7,11.3,5.3,17.3,5.2c1.1,0,3.4-1.9,3.1-3.1C455.2,548,443.2,546.6,437.6,546.6z"/> <path class="st6" d="M245.7,423.7c0.1-0.6,0.2-1.2,0.3-1.7c0.6-3.6-6.4,2.6-6.9,4c-3.8,9-6.8,19.1-6,28.9 c-0.9,5.7-1.5,11.5-2.1,17.2c-1.2,12.2-4.7,29.8,0.9,41.1c0.4,0.8,2.6-1.8,2.7-2.3c1.6-7.6,1.7-15.6,1.6-23.5 c2-9.9,2.7-20.3,4.1-30.3c0.9-5.9,1.8-11.8,2.7-17.7c1.3-5.1,2.5-10.1,3-15.3C246.1,423.9,245.9,423.7,245.7,423.7z"/> <path class="st0" d="M772.3,372c-2.4-11.4-4.8-23.6-9.7-34.2c-0.3-0.7-2.5,1.6-2.5,2.2c1.9,24.8,11.2,49.9,18.1,73.7 c0.2,0.7,2.2-1,2.1-1.7C777.7,398.7,775.1,385.3,772.3,372z"/> <path class="st0" d="M781.7,418.8c-0.5-0.5-2.7,1.6-2.1,2.1c1.8,1.9,2.3,4.1,3.2,6.5c0.2,0.6,1.5-0.8,1.6-1.1 C784.7,423.5,783.6,420.9,781.7,418.8z"/> <path class="st0" d="M613.2,434.5c-5-5.2-15-8.1-22-9.6c-7.4-1.6-13.8-1-20.8,1.8c-0.4,0.2-1.8,2-1,1.8c7.2-2.1,14.6-1.4,21.6,0.8 c6.8,2.1,12.7,6.6,19.6,8C611.5,437.4,613.9,435.3,613.2,434.5z"/> <path class="st0" d="M619,500.7C619,500.6,618.9,500.7,619,500.7c2.7,6,6.1,11.6,8.9,17.5c3.1,6.3,4.4,13.2,7.1,19.6 c0.4,0.8,2.1-1.2,2.2-1.8C637.3,522.9,630,507.6,619,500.7z"/> <path class="st0" d="M581.4,96.4c-9.1-2.4-24.8,8.4-32.3,12.8c-11.5,6.8-21.5,15.1-30.8,24.6c-2,2.1-0.9,3.3,1.2,1.2 c9.5-8.9,20.4-16.8,32-22.7c9-4.7,19.1-7.1,27.8-12.3C579.8,99.7,582.9,96.8,581.4,96.4z"/> <path class="st0" d="M603.8,128.1c-8.1-1-18.6,5.5-25.4,9.3c-7.9,4.4-14.8,9.6-21.2,15.8c-1.2,1.2-1.3,2.8,0.6,1.4 c6.9-5.4,14.3-10.4,22.2-14.2c7-3.4,14.6-5.1,21.5-8.6C601.9,131.5,605.2,128.3,603.8,128.1z"/> <path class="st0" d="M379.1,214.1c-5.7-1.1-11.9,1.7-17.5,2.5c-3.6,0.5-8,0.8-11-1.7c-2.1-1.8-4.1-5.3-2.7-8.1 c0.8-1.6-1.7,0.1-2,0.5c-3.5,4.5-3.2,10.2,2.5,13.1c3.8,1.9,8.4,1.2,12.4,0.5c5.7-1,11.5-2,16.8-4.4 C377.8,216.3,380,214.3,379.1,214.1z"/> <path class="st0" d="M142.7,227.2c-0.6-0.9-4.4,2.4-3.7,3.7c0.7,1.3,1.4,2.6,2.1,3.9c0.6,1.2,1.3,2.5,2.6,2.8 c0.9,0.2,2.6-1.6,2.7-2.4C146.6,232.2,144.1,229.5,142.7,227.2z"/> <path class="st0" d="M125.9,224.5c-0.1-0.1-0.1-0.2-0.2-0.3c-0.2-0.2-0.5-0.2-0.7-0.1c-2.4,0.6-4.5,1.6-7,2 c-2.7,0.5-5.4,0.9-8.1,1.3c-0.5,0.1-3.2,2.4-2.3,2.8c2.9,1.4,5.3,1.4,8.6,0.8c3.3-0.7,6.4-1.8,8.7-4.4 C125.2,226.3,126.3,225.2,125.9,224.5z"/> <path class="st0" d="M124.4,240.2c-2.2,1.4-3.8,3.6-5.5,5.6c-1.9,2.1-3.5,4.4-5.3,6.6c-1.2,1.6,0.1,1.6,1.2,0.5 c2.1-2.2,4.2-4.3,6.2-6.5c1.6-1.8,3.8-3.7,4.5-6C125.8,239.5,124.7,240.1,124.4,240.2z"/> <path class="st0" d="M185.1,204c-2,0.7-3.7,1.8-5.7,2.5c-2.3,0.8-4.6,1.4-7,1.8c-0.5,0.1-2.6,2.2-1.7,2.3c5.1,0.6,10.3-1.5,14-4.9 C184.8,205.6,186.2,203.6,185.1,204z"/> <path class="st0" d="M186.5,224c-1.1-1.2-3.3-1.1-4.8-1.3c-2-0.2-4-0.4-6.1-0.6c-1.1-0.1-3.5,3-2.6,3.1c3.7,0.5,8.1,1.8,11.8,0.8 C185.3,225.9,187,224.6,186.5,224z"/> <path class="st0" d="M143.7,252.7c0.1,0,0.2-0.2,0.1-0.2C143.8,252.5,143.7,252.7,143.7,252.7z"/> <path class="st0" d="M192.5,594.1c0.1,0,0.2-0.2,0.1-0.2C192.5,594,192.4,594.1,192.5,594.1z"/> <path class="st0" d="M210.1,590.7c-0.9-6.7-0.9-13.5-0.4-20.2c0-0.3-0.4-0.2-0.9,0.2c-0.1-0.9-0.2-1.8-0.3-2.7 c-0.1-0.9-2.1,1.3-2.2,1.7c-1.9,7.2-2.8,13.9-2.9,21.3c-0.1,5.5-1.9,14,2.3,18.2c0.6,0.6,2.1-1.4,2.3-1.9c0.1-0.3,0.1-0.5,0.2-0.8 c0.8,2.8,2.1,5.3,4,7c0.7,0.6,2.2-1.4,2.2-2C214.3,604.5,211,597.6,210.1,590.7z"/> <path class="st0" d="M248.1,573.6c-5.3,10.7-12.1,28.2-6.6,39.9c0.4,0.9,2.7-1.8,2.8-2.3c1.3-6.9,0.9-13.8,2-20.7 c1-6.3,2.5-12.4,4.4-18.4C251.1,570.8,248.3,573.1,248.1,573.6z"/> <path class="st0" d="M199,497.4c-7.6,7.3-13.9,15.3-18.9,24.6c-4.2,7.8-11.5,21.4-9.1,30.3c0.4,1.4,3.2-1.8,3.4-2.3 c3.4-8,4.5-16.5,8-24.5c4.3-9.9,10.4-19,17.7-27C202,496.5,201,495.4,199,497.4z"/> <path class="st0" d="M376,594.5c-1.3,0.5-2.6,2-3.3,3.3c-0.9,1.7-4.1,10.4-0.3,10.4c1.2,0,2.4-1.4,2.9-2.4c0.9-1.8,0.8-3.2,0.8-5.1 c0-1.8,0.4-3.4,1.1-5C377.7,594.6,377.1,594.1,376,594.5z"/> <path class="st16" d="M210.3,639.4c-8.4-2.2-13.1-7.7-19.8-12.5c-6.1-4.4-12.4-7.7-17.6-13.2c-4.7-4.9-9.7-10-13.9-15.4 c-3.5-4.6-5.3-9.5-11-11.3c-1.6-0.5-4.1,2.8-4.5,4.1c-4.4,15.3,8.2,27.3,20.9,33.7c14.9,7.4,27.8,14,44.6,16.3 C209.5,641.1,210.9,639.5,210.3,639.4z"/> <path class="st16" d="M289.7,651.9c-6.6-6.7-17.1-6.9-25.9-8.5c-11.1-2.1-21.7-4.6-33-3.1c-1,0.1-4.2,2.8-3.3,4 c5.9,7.4,16.8,9.8,25.7,11.9c12.1,2.8,21.9,3.2,33.7-1C287.7,655,290.6,652.8,289.7,651.9z"/> <path class="st16" d="M456.2,667.1c-4.4,2.9-7.7,5.5-12.8,6.4c-5.8,1-11.3,2.4-17.2,3.3c-11.8,1.7-21.4,8.8-26.8,19.4 c-9.7,19.1,21.7,9.5,27.6,6.1c11.1-6.5,21.6-16.1,30.6-25.2C461.8,672.5,466.9,659.9,456.2,667.1z"/> <path class="st16" d="M473.2,646.3c-1.6-0.1-2.9,0.1-4.4,0.7c-1.3,0.5-2.6,1.3-3.8,2.1c-2,1.3-3.8,2.9-5.2,4.7 c-0.6,0.8-1.4,1.7-1.8,2.7c-0.1,0.4-0.3,0.7-0.4,1.1c-0.2,0.5-0.1,1,0.2,1.5c0,0.4,0.4,0.6,0.8,0.8c0.4,0.2,0.9,0.5,1.4,0.5 c0.8,0.1,1.8-0.2,2.6-0.3c-0.2,0-0.4,0-0.6,0.1c3.8-0.3,7.3-3.5,9.5-6.4C472.2,652.8,476.7,646.5,473.2,646.3z"/> <path class="st6" d="M510.3,516.7c-2.1-5-4-10.2-5.1-15.5c-1.2-5.9,0.4-11.2-0.3-16.9c-0.1-0.6-1.2,0.6-1.3,0.7 c-7.2,10.1-4.5,21.7,0,32.6c2.5,6.1,5.6,12.1,8.4,18.1c3.4,7.1,6.1,15.9,11.4,21.7c0.6,0.7,2.6-1.6,2.5-2.3 C523.9,541.9,515.4,529,510.3,516.7z"/> </g> <g id="Inks"> <path d="M810.6,512.5c1.1,2.2,1,4.2,0.3,5.9l-5.8,0c-0.1-0.4-0.5-1-1.1-2.3c-0.2-0.4,0-0.9,0.4-1.5c0-0.1-0.1-0.3-0.1-0.4 c-7.4-18.7-9.7-40.6-14.1-59.9c-5.2-23-10.5-46-15.7-69c-2.8-12.2-5.5-24.4-8.3-36.5c-0.4-1.7-0.8-3.4-1.2-5.1l5.5-1.3 c2.1,8.9,4.6,17.7,6.5,26.3c3.7,16.2,7.4,32.4,11.1,48.7c3.9,16.9,7.7,33.8,11.6,50.7c1.9,8.5,4.3,17,6.2,25.6 c1.1,3.5,2.2,7,3.1,10.6C809.6,507.1,810.4,509.8,810.6,512.5z"/> <path d="M805,518.4l5.8,0c-1.9,4.4-8.5,7.3-12.8,8.2c-10.7,2.2-21.9,3-32.7,4.8c-4.3,0.7-8.8,1.9-13.2,2.1 c3.6,8.7,5.1,19.8,6.8,27.3c2.9,12.9,5.5,26,7.5,39c3.6,23.1,0.9,44.1-11.6,63.7l-3.7-2.3c0.7-1.2,1.4-2.4,2-3.6 c11.3-21.1,7.9-44.4,3.5-66.9c-2-10.3-4.5-20.6-7.3-30.8c-0.3-1-0.6-1.9-0.9-2.9c-1.2-6.6-2.9-13-4.5-19.2c-0.5-1.9-1-3.9-1.6-5.9 c-0.1,0-0.1-0.1-0.2-0.1c-0.4-0.2-0.4-0.6-0.1-1.1c-2.5-9.2-5.3-18.5-9.1-27.2c-3.8-15.4-7.8-30.8-12-46.2 c-8.8-32.4-18.4-64.5-28.5-96.5c-5.1-16-10.4-31.9-15.8-47.8c-5.5-16-10-33.3-17.8-48.4c-7-13.5-18.4-21.7-31.7-26.5 c-1.4-0.3-2.8-0.6-4.2-0.9c-10.2-1.7-20.4-1.5-30.6-0.5c-4.4,0.4-10.4,2.3-15,1.4c0.9,7.9,0.1,16.2-2.6,23.9 c-0.1,0.2-0.5,0.7-0.9,1.3c-0.4,1.6-0.8,3.1-1.4,4.6l-3.6-0.6c0.3-0.9,0.6-1.8,0.8-2.8c0.3-1.6,0.6-3.2,0.8-4.8 c-1.2-9.1,1.1-18.8-1.9-27.9c-4.3-13.3-15.4-17.9-23.9-27.7c-0.8-0.9,2.1-3.7,3.1-3.4c3.6,1.1,6.8,2.6,9.8,4.4 c4.2,0.9,8,3.1,11.5,6.1c1.7,1.4,3.9,3.5,5.6,5.8c0.2-0.6,0.5-1.3,1.1-2.2c8.3-12.9,21.6-20.2,34.7-27.4 c8.6-4.7,17.5-9.1,26.4-13.1c2.6-1.2,6-3.2,9.5-4.7c-10.7-3.2-22-4.1-33.2-2.7c-6.6,0.8-13,2.3-19.4,4.2 c-4.3,1.3-14.8,3.1-19.1,6.7c-0.4,0.6-0.8,1.3-1.1,1.9c-1.1,2.2-2.2,4.4-3.2,6.7c-0.2,0.5-1.1,1.4-2.2,2.4 c-0.5,0.8-0.9,1.6-1.4,2.4c-0.7,1.2-6.1,5.6-4.7,2.3c0.2-0.5,0.5-1,0.7-1.6c-0.3-0.1-0.4-0.4-0.2-1.1c3-10.8,10.2-19.7,17.4-28 c8.9-10.2,17.7-20.8,27.2-30.6c-0.5-0.4-1.4-0.7-2.9-0.8c-12.3-0.7-28,7.7-37.9,14.1c-6.4,4.2-12.4,9.2-17.6,14.9l-1.8-1.5 c17.4-19.2,40.3-32.2,67.5-34.5c1.3-0.1,1.3,0.8,0.8,1.8c-4.7,10.5-12.4,18-20.4,26c-5.8,5.8-10.9,12-15.5,18.5 c8.2-4.5,19.9-6.8,25.8-8.2c20-5,40.7-4.6,59.3,4.9c1.9,1-4,6.1-4.8,6.5c-27.5,12.8-61.5,23.2-79.9,48.6c4.3-0.3,8.5,0.6,12.9,1.3 c2.5,0.4,6.1,0.6,9.1,1.5c24.1,0.9,49.9,9.2,62.1,29.8c7.4,12.4,11.6,26.8,16.3,40.3c4.6,13.2,9.1,26.5,13.4,39.8 c0.4-0.2,0.8-0.4,1.2-0.5c0.8-0.7,1.7-1.1,2.2-1c10.3-4.4,21.6-7,32.3-9.8c11.7-3.1,23.9-6.9,36.1-7.1c0.4,0,0.5,0.3,0.6,0.6 c0.1,2,0.4,4.1,0.7,6.2c0.3-0.1,0.6-0.2,0.9-0.3c1.5-0.5,0.8,1.3-0.4,3.1c0.8,5.3,2,10.7,3.2,16l-5.5,1.3 c-0.9-3.7-1.8-7.4-2.6-11.1c-0.2-0.7-0.3-1.4-0.4-1.9c-11.4,4.4-23.1,7.9-34.7,11.3c-6.6,1.9-15.8,5.9-24.3,7.5 c2.1,6.2,4,12.5,5.9,18.8c3.7-0.8,7.3-1.5,11-2.3c4-0.8,8.8-2.6,12.9-1.7c1.4,0.3-1.8,3.1-2.2,3.3c-5.7,3.2-13,5.2-20.1,5.9 c3.3,11.5,6.3,23,9.3,34.5c5.3-0.6,11.4-3.2,16.1-4.2c4.4-1,11.2-3.9,15.3-1.5c1.4,0.8-2.8,4.2-3.4,4.5c-6.9,3.9-15.1,5-22.8,6.5 c-0.9,0.2-2.1,0.5-3.6,0.9c1.5,5.7,3.1,11.3,4.7,16.9c1.8,6.2,3.4,12.3,5.2,18.5c4.1-0.7,8.2-1.2,12.4-1.8 c4.3-0.6,9.9-2.7,14.1-1.2c1.4,0.5-1.7,3-2.2,3.3c-5.9,3.1-14.7,5.3-22.7,5.5c2.4,8.6,4.7,17.2,7.1,25.8c0.2,0.9,0.5,1.7,0.7,2.6 c3.5-1.2,7-2.2,10.6-3c4.2-0.9,9.9-3.3,14.1-1.8c1.7,0.6-2,3.7-2.6,4c-6.1,3.1-13.5,4.8-20.8,5.5c3.7,12.3,8.1,25.1,9.7,37.7 c11-0.7,21.7-2.8,32.7-4.5c5.3-0.8,13.4-0.4,18.4-2.5C804.8,518.5,805.3,519.1,805,518.4z M759.2,326.2c-0.2-0.1-0.4-0.2-0.6-0.3 c-3.3-1.6-7,0.7-10.4,1.5c-10.8,2.7-21.6,4.9-32.4,7.7c-5.3,1.4-10.7,3.3-16.2,4.7c0.5,1.4,1.1,2.9,1.6,4.3 c9.2-3.4,19.3-5.3,28.5-8.1C739.6,333,749.4,329.5,759.2,326.2z"/> <path d="M751.1,661.2l3.7,2.3c-0.7,1.1-1.4,2.2-2.2,3.3c-12.6,18.1-30.2,32.8-49.3,43.6c-9.3,5.3-19.3,9.6-29.6,12.7 c-4.4,1.3-10,3-15.7,4c3.3,11.9,6.9,23,14.8,33.3c8.9,11.6,20.2,17.1,31.6,25.6c0.9,0.6-0.4,2.4-1.9,3.8c-0.4,0.8-1.5,1.8-1.9,2 c-4.4,2.6-10.2,3.3-15.7,2.6c-10.5,0.7-21.3-1.3-31.7-2.9c-9.8-1.4-19.6-3-29.1-5.7c-13.7-3.9-35.2-12.8-38.2-28.5 c-12.1,2.4-25.9,2.1-26-9c0-2.8,0.9-5.7,2.3-8.4c-11,3.8-23.7,4-34.9,3.3c-10.3-0.7-23.3-1.7-34.7-4.7c-0.9,0.7-1.7,1-2,0.4 c-0.2-0.4-0.3-0.7-0.5-1.1c-2.9-0.9-5.6-1.8-8.2-3c-2.1,2.6-4.4,5.1-6.9,7.4c-3.7,3.5-7.5,6.6-11.5,9.5l-2.6-3.8 c2.6-1.7,5.2-3.6,7.7-5.6c27.7-22.8,27.4-62.7,23-95.2c-0.1-0.7,1.9-2.2,2-1.6c1.6,10.6,2.9,21.2,3.8,31.8 c0.7,7.3,1.7,13.4,1.1,20.3c0.7,0.3,1.4,0.6,2.1,1c0.3-0.1,0.5-0.1,0.5,0.2c10.1,4.6,20.2,8.6,31.2,10.8 c10.8,2.2,21.7,1.2,32.4,3.1c0.8,0.1-1.1,1.8-1.4,1.9c-20.3,5.4-45.7-0.1-64.3-10.7c-0.9,4.2-1.9,8.2-3.2,12.2 c-0.8,5.5,0.1,10.7,0.2,16.1c10.9,1.5,21.8,4,32.8,4.5c9.1,0.4,18.1,0.3,27.2-1c3.6-0.5,7.4-1.9,11.1-2.5c0.9-1,1.8-1.9,2.7-2.8 c1.4-1.3,15.1-10.7,17.6-7.4c6.1-1.8,12.6-2.6,19.4-2.5c11.2,0.1,22.3,1.5,33.6,1c2.8-0.1,5.6-0.3,8.4-0.5 c9.2-2.7,18.9-3.8,28.1-6.6c9.7-3,19.1-6.7,28.1-11.5C723.1,693.2,740.4,679,751.1,661.2z M659.8,783.4c8.3,1.2,17.8,1.3,26.2,3.3 c-20.2-11.2-35.9-37.2-36.2-58.7c-9.2,2-18.8,2.7-28.3,2.4c-12.6-0.4-27.7-4.1-40.4-0.9c-2.6,1.2-5.6,2.5-8.2,4.2 c-0.3,0.7-1.5,1.9-1.7,2c-0.6,0.4-1.2,0.7-1.8,1c-1.7,2.2-2,4.9,0.3,8.3c3.3,4.7,10.8,4.4,15.9,4.4c5.3,0,13.8-3,18.6-0.4 c0.9,0.5-1.7,2.8-2,3c-1.7,1-4.5,2.2-8,3.3c5,4.3,9.2,9.8,14.9,13.4c7.6,4.8,16.3,7.9,25,10.1C642.6,780.7,651.2,782.1,659.8,783.4 z"/> <path d="M655.6,589.4c0.9,1.7-3.3,6.2-5,5.6c-3.7-1.4-6.8-1.2-10.3-0.8l-1.8-2.7v0c0,0,0.1-0.1,0.1-0.1c2.5-1.8,5-2.8,7.7-3.2 c-6.6-10.5-14.3-19.9-21.5-30.1c-0.7-1,2.2-3.9,3.2-3.2c4.5,3.2,8.5,7.1,12.1,11.3c-3.6-10.7-2-23.7-4.5-34.4 c-4.1-17.6-14.4-30-27.8-41.4c-0.8,0.4-1.5,0.5-0.9-0.6c0.8-1.5,1.7-2.8,2.7-4.1l3.1,0.3c13,8.2,22.4,22.3,26.8,36.9 c5.1,16.8,2.4,34.3,8.2,51.1c0.1,0.3-0.3,0.8-0.7,1.3C650.1,579.8,653,584.6,655.6,589.4z"/> <path d="M653.2,755.6c0.2,0.9-1.6,2.5-2.4,2.6c-4.8,0.6-9.6-4.3-12.8-7.3c-0.5-0.5,1.3-2.2,1.9-2.1c2.7,0.8,5.4,1.5,7.9,2.6 C649.8,752.3,652.6,753.1,653.2,755.6z"/> <path d="M640.3,594.1c9.8,15,14.3,33.2,14.5,51.2c0,1.2-2.6,4.7-4.1,4.1c-5.9-2.4-11.9-4.2-18.2-5c-4.6-0.6-9.7-0.2-14-1.8 c-9.8-3.6-18.2-14.5-24.7-22.3c-14.6-17.3-28-36.8-49.7-45.2c-0.2,0.9-0.4,1.9-0.6,2.8l-5.2-0.1c0.1-0.3,0.1-0.5,0.1-0.7 c1.8-11.4,1.4-23-0.8-34.4c-4.2-22-16.1-38.9-26.6-57.8c-0.5-0.2-1-0.3-1.5-0.4c-0.8-0.1-2.2-0.1-3,0.3l-3.1-0.1 c2.4-2.8,6.5-5.1,8.7-5.3c3.4-0.3,6.2,1.1,8.2,3.2c0.5-0.4,1-0.5,1.3-0.4c2,1.2,3.7,2.3,5.1,3.7c2.3-8.9,6.6-18.3,9.2-25.5 c4.6-13.1,9.8-26,16.2-38.3c4.2-8,10.9-21.3,19.6-30.6c-0.1,0-0.3-0.1-0.3-0.3c-8.4-22.5-19.6-43.3-35.2-61.6 c-14.9-17.5-33.2-30.7-51.6-44.2c-0.3-0.2,0.7-1.2,1-1.1c42.3,17.4,75.8,61,89.6,103.8c0,0,0,0,0,0c6-5.2,12.7-8.3,20.2-6.7 c1.5,0.3,0.2,2.5-0.2,3.2c-3.8,6-7.4,12.2-10.7,18.5c-0.7,1.4-2.9,5-4.5,8.3l-3.1-1.4c3.3-6.9,6.8-13.8,10.5-20.5 c-20.4,3.1-31.1,35.5-37.9,52.3c-6.5,16.2-10.4,34.5-18,50.4c1.1,1.9,2,3.7,2.6,5.5c0.2,0.3,0.4,0.6,0.5,0.9l3.6,1.2 c-0.4,1.1-0.8,2.3-1.2,3.4c8.4,17.4,12.7,37.1,13.8,56.1c18.5,0.7,35.4,23.6,46.2,35.7c15.2,17,30.9,34.9,52.7,43.1 c-2.2-19.7-10.5-37.2-22.3-53.7c-0.6-0.9,2.2-3.6,2.9-2.9c3.1,3,5.7,6.2,8.2,9.6v0L640.3,594.1z M619.7,636.4 c5.5,3.2,12,2.5,18.1,3.5c-15.6-7.6-28-20-39.7-33.2c-7.9-8.9-15.6-18-24.4-26c-7.4-6.8-14.7-11-23.1-14.7 c-0.6,1.1-1.9,2.4-3.1,3.3c20.2,7.5,33.4,24.3,46.6,40.7C601.3,619,609.4,630.5,619.7,636.4z"/> <path d="M649.5,770.6c0.5,0.5-1.1,1.8-1.5,1.9c-7.5,1.2-13.8-4.4-19.4-8.3c-0.1-0.1,0.3-0.5,0.4-0.5c3.7,1.5,7.7,2,11.5,3.3 C643.2,767.9,647.6,768.3,649.5,770.6z"/> <path d="M630.3,450.4c0.1,0.6-1.9,2.9-2.4,2.2c-0.1-0.2-0.3-0.4-0.4-0.6c0,0,0,0,0,0c0,0,0-0.1-0.1-0.1c0,0,0,0,0,0 c-6.3-8.3-11.6-15.6-20.9-20.9c-10.7-6-21.8-8.8-34.1-6.8c-8,11.7-15.6,23.1-21.1,36.7c-5.1,12.8-8.7,26-13.1,39l-3.6-1.2 c3.1-14.2,8.1-28.2,13.7-41.3c6.1-14.3,14-29.7,25.6-40.5c1-2.3,2.1-4.5,3.1-6.8l3.1,1.4c-1.2,2.4-2,4.7-1.5,5.6 c0.7,1.3,17.2,1.3,20.3,2.2C613.1,423.6,627.3,435.3,630.3,450.4z"/> <path d="M628.6,477.7c0.5,1.6-2.9,4.4-4.3,4.3c-4.6-0.3-8.4,1.2-11.7,4l-3.1-0.3c3.1-3.7,7.4-6.1,12.1-7.4c-2.7-3.7-5.7-7-9.5-9.9 c-2.9-2.3-6-3.8-9.4-5.3c-1.7-0.7-3.3-1.3-4.6-2.4c-0.4,0.1-0.4,0-0.3-0.3c-0.2-0.2-0.4-0.4-0.6-0.6c-0.7-0.8,1.6-2.5,2.2-2.7 c0.9-0.3,1.8-0.4,2.7-0.5c7.2-4.8,16.9-5.7,25.2-4.6h0c0,0,0,0,0,0c0,0,0,0,0.1,0.1c0,0,0,0,0,0c0,0.4-0.9,1.5-1.4,1.5 c-5.2-0.7-9.9-0.3-14.9,1.1c-1.8,0.5-3.4,1.2-5,2C616.6,457.8,625.9,468,628.6,477.7z"/> <path d="M627.4,452.1C627.4,452,627.3,452,627.4,452.1C627.4,452,627.4,452,627.4,452.1z"/> <path d="M609.7,562.4c1,1-2.3,3.4-3.1,3.4c-7,0.1-13.8-2.3-20.7-3.3c-6.2-0.9-12.5-1.6-18.7-1.8c-0.8,0,1.2-2.4,1.8-2.5 C580.5,555.9,600.4,553.2,609.7,562.4z"/> <path d="M596.6,533.5c1,1.5-2.6,4.3-3.8,4.6c-5.5,1.2-11,0-16.6,0c-4.1,0-9.3,1.6-13.1-0.2c-1-0.5,1.8-3,2.2-3.2 c4.8-2.9,9.9-4.3,15.6-4.7C585.6,529.6,593.7,529.1,596.6,533.5z"/> <path d="M593.8,90.9c2.6,0-1.8,5.4-2,5.6c-20.9,19.2-36.2,41.6-48.2,66.5c1.1-1.3,2.2-2.6,3.4-3.9l1.8,1.5 c-5.2,5.7-9.6,12.2-12.7,19.2c-0.6,1.4-7.4,6.6-6.4,3.7c0.1-0.3,0.2-0.7,0.3-1c-0.2,0-0.4-0.1-0.3-0.3c1.5-18.1,12-33.9,22.1-48.4 c7.9-11.4,16.8-24.7,27.8-33.9c-29.4,3.2-50.5,22.1-71.7,41.7l-1.4-3.5C528.9,113,559.3,91.2,593.8,90.9z"/> <path d="M583,497.9c5-2.1,11.3-3.7,10.1,3.6c-0.2,1.3-2.1,3.3-3.4,3.4c-7.2,0.8-12.8,2.8-19.4,5.7c-3.4,1.5-12,7.1-15.6,4.7 c-1-0.6,1.6-3.1,1.9-3.3C563.7,505.5,574.1,501.6,583,497.9z"/> <path d="M580.6,468.4c0.9,4.7-11.2,9.7-14.1,11.5c-5.4,3.3-10.1,7.5-15,11.5c0.2,0.5-1.5,2-1.9,2.1l-1.8,0.8c0,0,0,0-0.1,0 c-0.3,0.2-0.5,0.4-0.7,0.5c-1.8,1.1-3.6,0.9-1.9-1.8c4-6.7,10.6-12,16.8-16.6C563.7,475,579.7,463.5,580.6,468.4z"/> <path d="M568.8,267.4l3.6,0.6c-0.9,2.5-2.1,4.9-3.4,7c-0.1,0.8-0.1,1.6-0.3,2.4c-0.1,0.4-1.6,2.3-2,1.7c-0.2-0.3-0.4-0.6-0.6-1 c-0.2,0-0.3-0.1-0.3-0.4c0,0,0,0,0,0c-4.3-6.8-6.2-15.6-10.6-22.6c-3.6-5.8-8.4-10.4-12.9-15.4c-0.3,8.1-1.8,15.8-4.5,21.8 c0,0.1-0.2,0.3-0.4,0.5c0.7,1.6-3.7,5.2-4.4,4.2c-9.8-14.7-19.8-29.4-31.2-42.9c-5.2-6.2-10.7-11.9-17.2-16.7 c3.7,6.5,6.3,14.2,7.1,21.2l-6.1,0.2c-0.7-3.4-1.4-6.9-2.6-10.1c-0.7-1.9-1.6-3.7-2.5-5.4c-0.3,0.1-0.5,0.1-0.6-0.2 c-0.3-1.1-0.8-2.1-1.2-3.1c-1.2-2.1-2.4-4.2-3.7-6.3c-0.7-0.8-1.4-1.7-2.1-2.4c-1.7-1.7-4.6-3.3-6.6-5.2c-0.4-0.3-0.8-0.5-1.1-0.8 c-0.2-0.2-0.2-0.4-0.1-0.7c-0.4-0.5-0.6-1.1-0.7-1.7c-0.2-0.9,1.4-2.3,2.2-2.4c2.3-0.3,4.2,0.7,5.9,2.2 c28.7,4.2,46.3,38.7,60.4,62.6c0.8-9.9,2.9-19.5-0.4-29.9c-3.8-11.9-11.7-18.9-20.4-27.1c-0.8-0.8,2-3.3,2.9-3.2 c3,0.4,5.7,1.3,8.2,2.5c16.5,2.6,20.1,22.6,25.4,35.9c0.2,0.4,0,0.9-0.4,1.5C559.1,241.2,567.2,254.6,568.8,267.4z"/> <path d="M538.2,577.9l5.2,0.1c-1.7,6.7-4.9,13.8-11.8,15.6c-6.3,1.7-8.4-2.2-8.7-7.6c-2-6.1-0.3-14.8-0.8-21 c-0.4-5.9-1.3-11.8-2-17.6c-0.3-1.1-0.6-2.2-1-3.3c-2.3-6.2-5.7-11.7-8.8-17.5c-4.5-8.3-9.1-18.2-10.2-27.6 c-0.3-2.4,0.3-5.9,1.6-9.2c-0.5-1.6,0.3-3.3,1.6-4.9l3.1,0.1c0.6,0,1.1,0,1.7,0c0.6,0,1.3,0,1.9,0c-7.2,3.7-0.2,20.6,1.5,24.8 c2.3,5.8,5.3,11.2,8.2,16.6c2.7,4.9,5.2,9.7,6.3,14.8c5.3,12.7,6.9,29.1,3.1,41.5c0.1,1.4,0.1,3.6,1.3,4.3 C533.9,589,537.3,580.8,538.2,577.9z"/> <path d="M523.3,85.2c1.3,6.3-2.6,11-5.3,16.5c-3.8,7.7-6.8,15.6-9.1,23.9c-1.1,4.2-1.9,8.4-2.5,12.5l1.4,3.5 c-0.7,0.6-1.4,1.3-2,1.9c-1,10.2-1.3,20.3-3.3,30.5c-0.2,0.8-4.3,5.7-5.1,4.2c-1.8-3.7-2.5-8.1-2.6-12.8 c-1.3-11.6,3.2-27.5,5.6-36.9c3.1-11.7,7-24.2,13.9-34.3c-24.1,13.9-38.1,34.8-49.5,59.3l-4.4-0.3c7.5-29.4,35-54.9,60.3-68.4 C521.6,84.4,523.1,84,523.3,85.2z"/> <path d="M491.8,227.8c0.5,3.9,0.4,7.6-0.3,10.9c0,0.2-0.5,0.8-0.9,1.2c0.1,0.7,0.1,1.4,0.1,2c0,0.4-1.2,1.9-1.5,1.4 c-9.6-14.2-21.6-23.2-37.4-30c-7.2-3.1-14.6-5.6-21.7-8.9c-1.5-0.7-3.1-1.4-4.7-2c-2.3-0.3-4.8-0.8-7.3-1.7 c2.2,6.6-2.7,14.2-6.8,19.3c-0.2,0.2-1.5,1.1-1.1,0.3c2.4-5.2,5.1-10.2,2.4-15.8c-2-4.1-6-6.6-9.8-8.8c0,0,0,0,0,0 c-0.3,0-0.5,0.1-0.8,0.1c-0.1,0-0.1,0-0.2,0l-3.6-3.2c0.7-0.6,1.4-1.2,1.7-1.3c3.9-1.4,6.9-2.5,11.1-3c1.2-0.1,2.4-0.3,3.6-0.5 c-0.1-0.2,0-0.4,0.1-0.7c0-0.6,0-1.1,0.1-1.7l5.5,0.2c0.1,0,0.1,0.1,0.2,0.1c10.2-5.2,25-7.4,35-4.1c1.1,0.4-1.5,2.7-2.1,2.8 c-5.9,1.3-11.9,2.1-17.8,3.1c-0.3,0.3-0.6,0.5-0.8,0.6c-2.3,1.3-5,1.9-7.7,2.5c1,1,2.1,1.9,3.2,2.8c2.4,1.9,5.9,3.7,8.4,6 c7.4,3.2,14.9,6.1,22.2,9.5c8,3.7,16.1,8.3,21.9,15.1c1,1.2,2,2.5,3,3.9L491.8,227.8z"/> <path d="M467.6,580.3c0,0.5-1.5,2.5-2.2,1.9c-7.1-6.5-7.9-20.1-16.6-24.4c-10.5-5.1-22.3-1.2-33.3-1.5c-0.9,0,1.3-2.4,1.7-2.6 c10.9-4.1,26.3-7.9,37.5-2.9C463.9,555.2,467.2,571.3,467.6,580.3z"/> <path d="M465.9,171.4c0.1,0.7-2,3.2-2.7,2.4c-6.5-7.8-10.3-18-15.7-26.6c-4.8-7.8-10.5-15.1-17-21.5c-5.6-5.6-11.9-10.6-18.8-14.7 c4.5,7.2,7.5,15.8,8.8,22.5c3.1,16.3,5.4,36-0.3,52.1l-5.5-0.2c0.3-6.9,1.3-13.9,0.9-20.9c-0.4-8.2-1.1-16.7-2.7-24.8 c-1.6-8.4-4.6-16.3-9.4-23.3c-4.3-6.2-11.1-10.3-14.2-17.1c-0.4-1,2.1-3.1,2.9-2.9c0.1,0,0.1,0,0.2,0c0.3-0.5,0.8-1,1.1-0.9 c16.8,4.8,31.8,12.7,44.1,25.3c8.6,8.8,17.4,20.2,22.8,32.4l4.4,0.3c-0.8,1.6-1.5,3.3-2.2,5C464.2,162.7,465.4,167.1,465.9,171.4z"/> <path d="M460.9,747.9l2.6,3.8c-21.7,15.2-48.3,21-74.9,23.2c-40.2,3.3-81,3.5-121.2,1.1c-29-1.7-65.2-7.2-82.8-33.3 c-16.8-25-16.1-56-13.7-84.9l5.1,0.4c-1.7,28.2-1.9,59.7,18.1,81.5c19.3,21,48.4,25.7,75.6,27.4c34.1,2.2,68.4,2.2,102.6,0.5 C401.9,766.3,435.2,764.5,460.9,747.9z"/> <path d="M418.6,609c16.3-3.4,22.3,15.3,18.4,27.7c-4.3,13.4-15.7,24.5-27.4,31.7c-6.6,4.1-13.8,7.2-21.2,9.7 c-5,1.7-13.7,5.9-18.6,3c-1-0.6,2-3,2.4-3.2c16.8-9.5,37.3-8.9,50.6-25.2c7-8.5,10.8-22.8,1.3-31.1c-4.1-3.6-9.4-5.7-13.9-1.7 c-1.9,3.8-2.4,8.8-5.2,12.4c0,0,0,0,0,0c-0.1,0.3-0.8,1-1.5,1.7c-2.7,3-6.1,5.4-9.7,7.1c-12.5,5.7-29,3.4-42.2,2.8 c-33.7-1.5-67.7-6.4-100.7-13.3c-24.8-5.2-50.8-11.9-71-27.9c-5.4-4.3-10.2-9.2-14.3-14.7c-3.8-5.2-6.4-13.8-14-13.5 c-5,0.1-8.8,4.6-10.9,9.3l-5-1.2c4-9,11.1-15.8,21.8-15.9c1.4,0,2.6,0.2,3.6,0.5c-1.1-16,8-35.8,15.6-48.1 c2.1-3.4,4.6-7.1,7.4-10.7l3.4,2.7c-4.4,5.9-8,12.5-10.8,19c-3.6,8.5-5.1,16.9-6.5,25.5c0.1,1.5,0.2,3.1,0.4,4.7 c0.5,3.8,1.9,7.7,1.8,11.6c0,0,0,0,0,0.1c0.6,1.1,1.2,2.2,1.8,3.3c1.3,2.2,3.7,4.2,5.6,6.2c2.9-9.1,9.4-19,12.3-23 c1.3-1.8,2.8-3.8,4.5-5.9l3.7,2c-1.3,1.6-2.6,3.2-3.8,5c-3.6,5.3-7,11.8-8.6,18c-0.8,3.2-0.7,6-0.4,8.9c4.8,4.5,6.9,10.6,10.3,15.8 c8,4.7,16.7,8.3,25.5,11.3c0.1,0,0.2,0.1,0.3,0.1c2.2-0.2,4.5-0.7,6.7-1c0.2-6.4-0.2-13-2.2-19.1c-13-16.1-15.7-36.5-7.7-56.4 c-0.1,0.1-0.1,0.1-0.2,0.2l-2.5-3.2c1.6-0.8,3.2-1.4,4.8-1.8c0.1-0.3,0.3-0.6,0.4-0.9c0.1-0.2,1.9-2.1,2.2-1.6 c0.8-4.9,1.5-9.9,2.3-14.8c0.2-20-1-40.1,2.1-60.2c2.2-14.4,7.1-28.4,16-40.1c3.5-4.7,7.5-8.9,11.7-12.9l3.1,1.8 c-6,5.9-11.3,12.2-15.2,19.8c-7.4,14.7-9.2,31.5-9.5,47.7c-0.6,30.6,4.6,62.7-9.9,91c-0.1,0.1-0.2,0.3-0.4,0.5 c-0.1,2.7-0.5,5.4-1.4,7.6c0,0.1,0.1,0.3,0.1,0.4c1.5,4.7,4.8,8.7,8,12.7c0.1,0.1,0.3,0.2,0.4,0.2c2.2,1.3,4.3,1.8,6.6,1.9 c5.4-13.9,12.6-29,22.3-40.3c0.3-0.3,4-3.2,3.3-1.2c-0.2,0.6-0.5,1.2-0.7,1.9c0.6,16.3-5,33.3,3.1,48.5c0.9,1.8,2.1,3.6,3.3,5.4 c1.5,1.1,3.1,2,4.8,2.7c0.8,0.3,1.6,0.5,2.4,0.7c1.3-3.4,2.9-6.8,4.9-9.9c0.3-1,0.6-1.9,0.9-2.8c0.7-2.5,1.4-5.1,2.5-7.5 c0.2-0.4,2.7-2.9,3-2.2c0.7-0.5,1.3-0.8,1.4-0.2c1.7,14.3,11.5,20.5,21.3,29.5c1.1,1,2.1,2,3.2,3.1c0.9,0.4,1.8,0.7,2.6,1.1 c1.2,0.5,2.4,0.8,3.6,1.1c0.2-1,0.3-1.9,0.5-2.9c1.9-9.8,2.5-19.9,4.5-29.6c0.1-0.4,1.7-2.4,2.2-1.8c0.4,0.4,0.7,0.9,1,1.4 c0.3-0.2,0.5-0.3,0.7-0.1c2.9,4.2,4.1,9.4,7.2,13.7c3.4,4.7,7.6,8.7,11.7,12.7c1.4,1.4,2.9,2.9,4.5,4.5c0.4,0,0.9,0,1.4,0.1 c0.7,0.2,1.3,0.6,2,0.8c1,0.3,2,0.4,3,0.5c0.5-5.3,1-10.6,1-15.9c0-12-1.4-24.1-5-35.6c-0.4-0.4-0.7-0.7-1.1-1 c-0.3-0.3-0.1-0.9,0.3-1.5c0-0.1-0.1-0.3-0.1-0.4c0.1,0.1,0.2,0.1,0.3,0.2c0.9-1.3,2.6-2.6,3.3-2.3c0.1,0,0.2,0.1,0.3,0.1 c0,0,0,0,0,0c4.4,1.9,8.5,4.1,12.5,6.5c0.2,0.3,0.5,0.6,0.7,0.9c10.6,6.7,20.9,18.1,25.8,29.5c3.7,7.6,6.6,16,8,23.9 C408.3,614,413,610.2,418.6,609z M400.7,628.2c-6.1-14.1-7.5-29.8-18.3-41.9c-4.6-5.2-10.2-9-15.5-13.1c3,17,2,35.1-1.7,51.7 c0.9,1,1.8,2,2.7,3c1.1,1.2,2.7,2.2,3.6,3.6c3.5,1.1,7,2.4,10.7,2.8C389.7,635.3,394.9,633.1,400.7,628.2z M354.2,631.6 c-1.1-2.8-2-5.9-3.5-8.2c-3.2-4.8-7.1-9.2-10.8-13.6c-3.6-4.2-7.7-8.7-10.2-13.8c-0.3,1.9-0.7,3.8-0.9,5.5 c-1.5,8.7-2.8,16.7-2,25.2c4.7,1.1,9,3.4,13.7,4.8C345.4,632.9,349.6,632.5,354.2,631.6z M306.3,629c1.8-0.1,5.5-0.8,8-0.8 c-0.9-2.8-1.9-5.5-3.8-8c-3.4-4.3-7.7-7.8-11.7-11.5c-5-4.7-9.8-9.8-11.8-16c-2,4.3-4.4,8.5-5.4,13.2c-0.9,4.4-1.1,8.8-0.1,13.2 c0.3,1.4,0.7,2.7,1.2,3.9C290.6,625.3,297.6,629.4,306.3,629z M267.4,624.8c1.5-0.7,3-1.3,4.6-1.8c-1.1-4.4-3.6-8.2-5.9-12.1 c-3-5.2-6.3-10.3-7.9-16.1c-3.2-11.4-2.6-25.5,0.4-37.9c-3.6,6.9-7.7,13.6-10.7,20.7c-3.2,7.7-5.9,15.9-6.1,24.4 c0,1.7,0.1,3.4,0.3,5.1c3,3.7,5.2,7.9,9,11c2.4,2,5,3.5,7.9,4.7c0.7,0.3,1.5,0.6,2.1,0.9C263.2,624,265.3,624.4,267.4,624.8z"/> <path d="M406,202.7c0.2,0.5,0.4,1,0.6,1.5c-0.1,0.1-0.1,0.3-0.2,0.4c0,0.1,0,0.2,0.1,0.3c0.5,3.7,0,7.1-2.2,10.2 c-0.1,0.1-0.4,0.5-0.7,0.8c-1.2,2.4-2.7,4.5-4.5,6.2c-0.7,0.6-2.4,2-3.6,2.7c-3.5,2.4-7.3,4.5-11,6.3c-6,2.9-14,6.4-21.9,7.6 c2.7,0.9,5.6,1.5,8.6,1.7c9.6,0.5,18.7-2.4,26.9-7c0.9-0.5-0.1,1-0.3,1.1c-11,9.8-35.6,16.3-48.7,5.8c-1.2,3.4-3.2,6.8-4.7,9.4 c-1.2,2.1-2.3,4.1-3.4,6.1l-4.5-2.5c3.1-5.8,5.7-11.5,7.3-18.4c-5.2-4.2-7.2-10.4-6.2-16.5c-0.5-1.9-0.2-4.3,1.1-7.1 c3.2-7.2,14.4-14.8,24.5-18.2c-0.9-7.1-1.6-14.3-2.9-21.4c-1.4-8.1-3.3-16.1-4.6-24.2c-6.7-15.9-14.4-33.2-25.5-46.5 c-10.3-12.2-24.8-20.6-38.8-27.9c-15.6-8.1-32.1-14.4-49.4-17.4c-28.6-4.9-62.7,0.6-83.1,22.7l-3.4-1.8 C183.8,45.5,233,41,272.4,55.1c26.9,9.6,56.3,24.5,72,49.2c16,25.4,30.5,54.5,32.9,84.8c7.5-1.7,15.7-1.8,19.9,2c0,0,0,0,0.1-0.1 c0.1,0.3,0.2,0.6,0.3,1c0.3,0.2,0.5,0.4,0.7,0.5l3.6,3.2c0.8,0.9,1.6,1.9,2.3,3C405,199.9,405.6,201.3,406,202.7z M398.4,217.3 c1.5-3.3,1.7-7.4,1.3-11.4c-0.3-0.8-0.5-1.5-0.7-2.2c-4,10.3-19.1,16.8-27.9,20.2c-4.7,1.8-15.8,3.3-24,1.6c4.8,6,13,7.9,24.2,5.2 c8.7-2.1,17.5-6.2,24.9-11.2c0.5-0.3,1-0.7,1.5-1.1C398,218,398.2,217.7,398.4,217.3z M372.1,217.7c6.9-2.1,26.8-10.1,16.9-19.1 c-4-3.6-9.2-3.9-14.5-3.3c-0.1,0.1-0.2,0.2-0.3,0.3c-0.9,0.1-1.8,0.1-2.7,0.1c-1.6,0.3-3.3,0.6-4.8,0.9c-8.3,3.5-21,8.4-21.4,13.8 c-0.3,4.9,7.7,7.6,11.4,8.4C361.8,220.1,367.2,219.3,372.1,217.7z"/> <path d="M376.9,289.9c7.8,13.1,5.9,31.1,4.6,45.7c-1.2,14.2-4.4,28.1-11.6,40.4c-1.6,2.7-3.4,5.4-5.4,7.9l-3.6-1.6 c13.1-18.1,14.4-47,13-67.1c-2-29.6-34.8-46.3-56.9-23c-1,1-3,2-3.6,1.5c-0.5,0.5-1,0.9-1.5,1.4l-2.9-1.7c2.6-2.4,5.4-4.5,8.1-6.3 c0.4-0.4,0.8-0.8,1.2-1.2c-15.2-3.4-28.8-6.4-44-0.1c-6.9,2.8-12.4,7.2-16.9,12.6l-3.7-1.7c5-6,11-11.1,17.9-14.9 c14.6-8.2,37.9-12.2,52.2-1.4c0.2-5.7,3.9-11.9,6.5-16.3c2.1-3.7,4.2-7.1,6-10.6l4.5,2.5c-3.6,6.7-6.7,13.1-9.1,20.5 C347.5,269.6,367.2,273.4,376.9,289.9z"/> <path d="M360.9,382.3l3.6,1.6c-13.2,17-34.1,27.8-56,21.4c-11.3-3.3-19.3-9-24.4-16.3c-1,0.6-2,1.1-3,1.5l-1-6.2 c0.4,0,0.8-0.1,1.1-0.2c-13.6-26.8,3.6-68.9,27.9-90.7l2.9,1.7c-17.7,17-31.6,44.3-27.7,67.2c4.4,25.9,31.7,43.1,57,34.7 C349.7,394.2,356.1,388.9,360.9,382.3z"/> <path d="M324.4,319.8c4.2,1.1,6.4,5,6.1,9.2c-0.4,7.9-11.4,17.8-19,11.8c-2.1-1.7-3.1-4.1-3.1-6.6c-0.3-2.9,1.1-6.1,2.9-8.3 C314.3,322.2,319.3,318.5,324.4,319.8z"/> <path d="M280,384.3l1,6.2c-3.1,1.3-6.3,2-9.6,2.1c-2.3,3.3-5.9,5.8-8.8,8.5c-0.9,0.8-1.8,1.7-2.6,2.5l-3.1-1.8 c1.4-1.3,2.8-2.7,4.3-4c1.5-1.4,3.6-3.7,5.8-5.5c-8.5-1-16.9-5.4-22.5-12.2c-13.1-15.6-11.5-39.3-5.3-57.4 c3.2-9.5,8.1-18.5,14.6-26.2l3.7,1.7c-7.5,8.9-11.9,20.6-13.9,32.2c-2.6,15-1,32.9,10.1,44.3c4.3,4.4,9.9,7.7,15.9,9.3 C273.5,385,276.8,384.9,280,384.3z"/> <path d="M274,309.5c1.9,4.2,0.7,8.3-2.4,11.6c-2.6,2.7-6.2,5.1-10.1,3.8c-3-1-4.9-3.4-5.4-6.5c-0.4-1-0.5-2-0.5-2.9 c0.1-3.2,2.2-6.8,5-9.1c0.1-0.1,0.2-0.3,0.4-0.4c0.1-0.2,1-0.8,1.4-0.8c0.9-0.5,1.8-1,2.7-1.2C269,303,272.4,306.1,274,309.5z"/> <path d="M217.5,534.1l2.5,3.2c-7,5.5-14,10.5-19.8,17.2l-3.7-2c2.7-3.4,5.9-6.9,9.3-10.1c-10.8-13.1-2.5-34.3,3.1-48.9 c-8.7,3.5-15.8,9.9-21.5,17.5l-3.4-2.7c8.3-11,19.4-21.5,32.2-23.4c1.6-0.3,1.5,1,1,2.2c-4.1,9.3-8.2,18.5-9.3,28.7 c-0.9,7.9,0.5,15.4,1.9,23.1C212.2,537.1,214.8,535.4,217.5,534.1z"/> <path d="M211.7,669.7c0.9,0.4-1.3,2.8-2.1,2.5c-11-4.5-22.7-8.7-33.6-13.9l-5.1-0.4c0-0.7,0.1-1.4,0.2-2 c-17-8.8-31.5-20.7-37.8-40.9c-2.8-9-2.3-22.1,2.3-32.4l5,1.2c-0.7,1.6-1.2,3.2-1.5,4.7c-0.7,3.4-0.7,7-0.4,10.5 c0.7,7.1,3,14,6.5,20.2c6.5,11.6,16.9,20.4,27.6,28C185.5,656,197.2,663.7,211.7,669.7z"/> <path d="M201.9,204.5c2,1.6-4.4,6.8-5.8,7c-5.6,1.1-10.9,2.8-16,5.1c7.6,3,14.7,6.7,18.5,14.5c1,2.1-3.6,6.3-5.6,6.1 c-6-0.5-11.9-1.5-17.7-3.3c-0.6,1.7-1.4,3.3-2.3,4.8l-4.8-0.8c2.8-7.1-1.1-17-6.5-21.3c-5-4.1-9.9-4.5-15.1-4.1 c-0.5,0.4-1,0.5-1.2,0.2c0,0,0,0,0,0c-0.7,0.1-1.5,0.2-2.2,0.3c-0.2,0.1-0.5,0.2-0.7,0.3l-1.6-4.3c0.8-0.6,1.5-1.1,2.3-1.6 c-2-6-2.7-12.8-3.3-19.2c-8.1-28.8-11-64.9,2-91.8c3.6-7.5,8.1-14,13.3-19.7l3.4,1.8c-2.3,2.5-4.4,5.1-6.3,8 c-16.3,24.6-13.4,59.7-8.8,89.7c0,0.2,0.1,0.5,0.1,0.7c1.8,9.1,4.7,18.6,5.4,28c1.9-0.5,3.9-0.8,5.8-0.8c2.8-9.9,16-17.6,24.7-19.1 c3.3-0.6-1.3,4.9-2,5.5c-5.2,4.5-7.4,10.3-8,16.7C179.7,201.5,191.6,196.5,201.9,204.5z M188,208.1c-5.5-1.2-11.1,0.4-16.4,3 c1.1,1.2,2.1,2.6,2.9,4.1C178.8,212.3,183.3,210,188,208.1z M176.9,227c3.1,0.8,6.2,1.6,9.3,2.2c-2.8-2.2-5.9-3.8-9.3-5.2 C177,225.1,177,226,176.9,227z M170.4,193.4c-4.9,2.2-8.4,6.3-11.1,11.1c1.5,0.3,3,0.7,4.4,1.3 C165.2,201.2,167.5,197.1,170.4,193.4z"/> <path d="M173.1,238.9c9.2,4.2,15.8,12.2,15.7,22.9c0,1.3-4.1,6.6-5.4,4.9c-4.8-6-10.3-11.1-16.7-15c1.4,13.7,1.6,27.2,0.2,41 c-0.1,1-4.3,5.6-5,4.1c-3.3-6.6-4.3-13.3-4.9-20.7c-0.7-7.9-2.8-14.9-4.2-22.5c-0.9,0.1-1.8,0.2-2.7,0.2 c-8.6,6.3-10.8,16.8-11.4,26.9c-0.1,1.5-5,6.3-5.3,4.4c-1.3-7.3-1.8-14.6-0.9-22c0.2-1.6,2.8-9.2,2-10.6 c-3.3-6.1-15.8,5.7-17.6,7.8c-0.5,0.6-3,3.4-4.2,2.4c-4.9-4.1,0.3-12.3,3.2-16.3c2.4-3.3,5.4-6.1,8.7-8.2 c-3.4-0.6-6.9-1.3-10.3-1.9c-1.8-0.3-8.6-0.5-9.7-2.3c-1.2-2,0-3.4,1.3-5.2c3.9-5.6,12.2-7.1,19.6-6.9c-1.9-2.9-3.1-6-4.1-9.6 c-0.5-1.9,3.3-4.7,4.8-4.8c2.8-0.3,5.6-0.3,8.5,0c1.9,0.2,5,0.1,6.4,1.5l1.6,4.3c-3.3,1.5-6.1,3.8-7.2,8.6 c-1.1,4.5-0.1,9.8,2.1,13.8c5.3,9.6,21.5,15.2,29.3,5c0.6-0.9,1.2-1.8,1.5-2.8L173.1,238.9z M178.1,251c-2.1-3-4.6-5.9-7.2-8.7 c-0.8,1-1.6,1.9-2.4,2.9C171.9,246.9,175.2,248.8,178.1,251z M162.8,278.4c0.1-9.2-0.4-18.4-1.6-27.6c-0.8,0.5-1.7,0.9-2.6,1.3 c-0.2,0.1-0.3,0.1-0.5,0.2c2.8,4.3,3.1,10.2,3.6,15.2C162,271.2,162.3,274.8,162.8,278.4z M146.1,253.7c-2.3-0.3-4.6-1-6.6-2.1 c-1,4.5-1.6,9-1.8,13.6C139.6,260.7,142.3,256.6,146.1,253.7z M130.4,220.6c1.4-2.5,3.2-4.8,5.2-6.8c-1.8-0.1-3.7-0.5-5.6-0.7 c-0.7-0.1-1.4-0.1-2.1-0.1C128.7,215.5,129.6,218.1,130.4,220.6z M132.6,246.5c-1.7-1.9-3.1-4.2-4-6.6 c-10.5,3.9-14.3,9.4-11.4,16.5C121.7,251.9,126.7,248.5,132.6,246.5z M127.3,230.1c0.1-0.8,0.2-1.5,0.3-2.3c-3.6-0.6-7.4-1-11-0.3 c-1.7,0-3.2,0.4-4.5,1.3c-1.9,0.7-1.7,1.1,0.7,1.1c1.9,1.5,7.1,1.3,9.7,1.8c1.6,0.3,3.2,0.6,4.8,0.9 C127.2,231.8,127.2,231,127.3,230.1z"/> <path class="st0" d="M325,322.5c-0.2-0.1-0.4-0.2-0.6-0.3c-1-0.4-1.9-0.8-3-1.1c-1.4-0.3-5.3,4-4.1,4.6c1,0.5,1.9,0.8,2.9,1.1 c1.5,0.4,2.4,0,3.5-0.9c0.5-0.4,1-0.9,1.3-1.5C325.2,323.7,325.2,323.1,325,322.5z"/> <path class="st0" d="M268.8,309.1c-0.8-0.1-1.5-0.8-2-1.4c-0.1-0.1-0.3-0.1-0.4-0.1c-0.1-0.1-0.2-0.2-0.2-0.3c-0.1-0.6-1,0-1.2,0.2 c-0.6,0.4-1.1,1-1.4,1.7c-0.3,0.9-0.6,1.7-0.2,2.6c0.3,0.6,0.9,1,1.6,1.1c1,0.2,1.8-0.3,2.6-0.9c0.7-0.6,1.7-1.5,1.5-2.6 C269.1,309.2,269,309.1,268.8,309.1z"/> </g> </svg>